<svg xmlns="http://www.w3.org/2000/svg" xmlns:xlink="http://www.w3.org/1999/xlink" viewBox="0 0 959.08 662"><defs><style>.cls-1{opacity:0.51;}.cls-2{fill:#009453;}</style></defs><title>balança_Ativo 37</title><g id="Camada_2" data-name="Camada 2"><g id="tela_3" data-name="tela 3"><rect class="cls-1" width="959.08" height="662"/><path class="cls-2" d="M716.08,199.2H240.74a48.28,48.28,0,0,0-48.14,48.14v57.33a48.28,48.28,0,0,0,48.14,48.14H716.08a48.28,48.28,0,0,0,48.14-48.14V247.34A48.28,48.28,0,0,0,716.08,199.2Zm-492.71,132A6.66,6.66,0,1,1,230,324.5,6.66,6.66,0,0,1,223.37,331.16Zm.86-98.32a6.66,6.66,0,1,1,6.66-6.66A6.66,6.66,0,0,1,224.24,232.84Zm501.73,99a6.66,6.66,0,1,1,6.66-6.66A6.66,6.66,0,0,1,726,331.82Zm.86-98.32a6.66,6.66,0,1,1,6.66-6.66A6.66,6.66,0,0,1,726.83,233.5Z"/><image width="200" height="200" transform="translate(244.08 207.77) scale(0.63)" xlink:href="../../like-icon-png-4177.png"/></g></g></svg>