<svg xmlns="http://www.w3.org/2000/svg" viewBox="0 0 498.5 211.21"><defs><style>.cls-1{opacity:0.14;}.cls-2{fill:#bf3434;}.cls-3{fill:#f9f9f9;}.cls-4{fill:#630e0e;}.cls-5{fill:#1d3d47;}.cls-6{fill:#981212;}.cls-7{fill:#4d4d4d;}.cls-8{fill:#373737;}.cls-9{fill:#1e171f;}.cls-10{fill:#bbb;}.cls-11,.cls-14{fill:#d9d9d9;}.cls-12{opacity:0.44;}.cls-13{fill:none;stroke:#630e0e;stroke-miterlimit:10;}.cls-14{opacity:0.24;}</style></defs><title>balança_Ativo 27</title><g id="Camada_2" data-name="Camada 2"><g id="tela_5" data-name="tela 5"><g id="balança"><ellipse class="cls-1" cx="247" cy="196.21" rx="119" ry="15"/><path class="cls-2" d="M331.41,172.21H165.85l19.32-56.77a9.11,9.11,0,0,1,10.47-6.23H300.49a9.44,9.44,0,0,1,7,1.61A9.31,9.31,0,0,1,311,116Z"/><rect class="cls-3" x="208" y="122.21" width="83" height="41" rx="12" ry="12"/><path class="cls-4" d="M266.28,113.21a16.13,16.13,0,0,0,.3-3c0-9.38-8-17-18-17s-18,7.6-18,17a16.13,16.13,0,0,0,.3,3h35.31Z"/><rect class="cls-5" x="108.26" y="100.2" width="280.73" height="6.01" transform="translate(-16.46 56.34) rotate(-12.52)"/><path class="cls-6" d="M266.13,116.3a10.5,10.5,0,0,0,.46-2.85c.14-7.07-7.09-17-18-17s-18.14,10-18,17a10.2,10.2,0,0,0,.42,2.61,156.56,156.56,0,0,0,17.81,1.1A156.6,156.6,0,0,0,266.13,116.3Z"/><rect class="cls-7" x="162" y="169.21" width="175" height="31" rx="3.13" ry="3.13"/><rect class="cls-8" x="162" y="187.21" width="175" height="2"/><rect class="cls-9" x="162" y="197.21" width="175" height="3"/><rect class="cls-10" y="114.54" width="201" height="11" rx="5.5" ry="5.5"/><rect class="cls-11" y="113.54" width="201" height="5" rx="2.25" ry="2.25"/><rect class="cls-10" y="116.54" width="201" height="4"/><path class="cls-5" d="M91.09,124.54l6.63,21.12a2.29,2.29,0,0,0,4.16-.25l6.88-20.87Z"/><rect class="cls-5" x="87" y="126.54" width="26" height="15" rx="4.92" ry="4.92"/><rect class="cls-11" x="87" y="131.54" width="26" height="5"/><rect class="cls-10" x="297.5" y="52.5" width="201" height="11" rx="5.5" ry="5.5"/><rect class="cls-11" x="297.5" y="51.5" width="201" height="5" rx="2.25" ry="2.25"/><rect class="cls-10" x="297.5" y="54.5" width="201" height="4"/><path class="cls-5" d="M388.64,62.5l6.63,21.12a2.29,2.29,0,0,0,4.16-.25l6.88-20.88Z"/><rect class="cls-5" x="384.5" y="64.5" width="26" height="15" rx="4.92" ry="4.92"/><rect class="cls-11" x="384.5" y="69.5" width="26" height="5"/><circle class="cls-12" cx="249" cy="126.21" r="1"/><circle class="cls-12" cx="272" cy="129.21" r="1"/><circle class="cls-12" cx="286" cy="142.21" r="1"/><circle class="cls-12" cx="227" cy="129.21" r="1"/><circle class="cls-12" cx="212" cy="142.21" r="1"/><path class="cls-4" d="M236.09,145l-5.63-3.43a.68.68,0,0,0-.88.87l2.56,6Z"/><line class="cls-13" x1="248.63" y1="163.23" x2="232.8" y2="145.19"/></g><rect class="cls-14" y="64.57" width="201" height="54" rx="12" ry="12"/><rect class="cls-11" y="103.57" width="201" height="15"/><rect class="cls-14" x="297.5" width="201" height="54" rx="12" ry="12"/><rect class="cls-11" x="297.5" y="39" width="201" height="15"/></g></g></svg>