<svg xmlns="http://www.w3.org/2000/svg" xmlns:xlink="http://www.w3.org/1999/xlink" viewBox="0 0 960 662"><defs><style>.cls-1,.cls-11,.cls-12,.cls-22,.cls-4,.cls-6,.cls-7,.cls-8{fill:#677799;}.cls-2{fill:#98aee5;}.cls-3{opacity:0.6;}.cls-4{opacity:0.44;}.cls-5{clip-path:url(#clip-path);}.cls-6{opacity:0.05;}.cls-7{opacity:0.2;}.cls-8{font-size:26.31px;}.cls-12,.cls-22,.cls-8{font-family:Montserrat-Bold, Montserrat;font-weight:700;}.cls-9{clip-path:url(#clip-path-2);}.cls-10{clip-path:url(#clip-path-3);}.cls-11{opacity:0.15;}.cls-12{font-size:31.9px;}.cls-13{clip-path:url(#clip-path-4);}.cls-14{clip-path:url(#clip-path-5);}.cls-15{clip-path:url(#clip-path-6);}.cls-16{clip-path:url(#clip-path-7);}.cls-17{clip-path:url(#clip-path-8);}.cls-18{clip-path:url(#clip-path-9);}.cls-19{clip-path:url(#clip-path-10);}.cls-20{clip-path:url(#clip-path-11);}.cls-21{clip-path:url(#clip-path-12);}.cls-22{font-size:47.9px;}.cls-23{fill:#a89c81;}.cls-24{fill:#75706a;}.cls-25{fill:#f0f0f0;}</style><clipPath id="clip-path"><path class="cls-1" d="M594.09,405.34c-2.58-5.08-6.39-19-8.22-25.41-3.43-8.48-9.46-26.68-12.24-34.36a26.36,26.36,0,0,0,6.85,2.77s.78-2.81,1.47-5.73c1.77.95,6.26,3,6.26,3s1.66-3.82,2.3-6a43.27,43.27,0,0,0,5,3.68s2.17-4.15,3.7-6.74c1.64.84,6.26,3,6.26,3s.55-3.58,1-5.57c1.29,1.2,4.43,3.64,4.43,3.64s1.22-2.8,3.14-6.31c4.19,11.46,7,23.14,9.63,32.08,2.44,6.27,8.84,20.38,10.64,27.79Z"/></clipPath><clipPath id="clip-path-2"><path class="cls-1" d="M637.91,389.79c-2.58-5.08-6.39-19-8.22-25.41-3.43-8.48-9.46-26.68-12.24-34.36a26.36,26.36,0,0,0,6.85,2.77s.78-2.81,1.47-5.73c1.77.95,6.26,3,6.26,3s1.66-3.82,2.3-6a43.27,43.27,0,0,0,5,3.68s2.17-4.15,3.7-6.74c1.64.84,6.26,3,6.26,3s.55-3.58,1-5.57c1.29,1.2,4.43,3.64,4.43,3.64s1.22-2.8,3.14-6.31c4.19,11.46,7,23.14,9.63,32.08,2.44,6.27,8.84,20.38,10.64,27.79Z"/></clipPath><clipPath id="clip-path-3"><path class="cls-1" d="M702.08,313.53c-2.43.85-8,2.39-8.72.48L690,304.32s7.89-2.55,6.74-5.82c-1.44-4.11-7.11-1.69-9.35-.91l-16.74,5.89c-2.24.79-8.27,2.49-6.83,6.59,1.15,3.27,8.8.36,8.8.36l3.41,9.69c.67,1.91-4.52,4.17-6.95,5-2.2.78-1.67,2.21-1.67,2.21l16.34,46.47,37.54-13.2-16.34-46.47S704.28,312.75,702.08,313.53Z"/></clipPath><clipPath id="clip-path-4"><path class="cls-1" d="M42.17,124.76c-2.5.62-8.24,1.63-8.73-.34l-2.49-10s8.1-1.8,7.26-5.17c-1.05-4.23-6.92-2.35-9.22-1.78l-17.22,4.29c-2.31.57-8.47,1.7-7.42,5.93.84,3.36,8.73,1.18,8.73,1.18l2.49,10c.49,2-4.89,3.73-7.39,4.35-2.27.57-1.87,2-1.87,2l11.92,47.8,38.62-9.63-11.92-47.8S44.44,124.2,42.17,124.76Z"/></clipPath><clipPath id="clip-path-5"><path class="cls-1" d="M86.53,113.7c-2.5.62-8.24,1.63-8.73-.34l-2.49-10s8.1-1.8,7.26-5.17c-1.05-4.23-6.92-2.35-9.22-1.78l-17.22,4.29c-2.31.57-8.47,1.7-7.42,5.93.84,3.36,8.73,1.18,8.73,1.18l2.49,10c.49,2-4.89,3.73-7.39,4.35-2.27.57-1.87,2-1.87,2L62.6,172l38.62-9.63L89.3,114.59S88.8,113.14,86.53,113.7Z"/></clipPath><clipPath id="clip-path-6"><path class="cls-1" d="M131.21,102.56c-2.5.62-8.24,1.63-8.73-.34l-2.49-10s8.1-1.8,7.26-5.17c-1.05-4.23-6.92-2.35-9.22-1.78l-17.22,4.29c-2.31.57-8.47,1.7-7.42,5.93.84,3.36,8.73,1.18,8.73,1.18l2.49,10c.49,2-4.89,3.73-7.39,4.35-2.27.57-1.87,2-1.87,2l11.92,47.8,38.62-9.63L134,103.45S133.48,102,131.21,102.56Z"/></clipPath><clipPath id="clip-path-7"><path class="cls-1" d="M175.57,91.5c-2.5.62-8.24,1.63-8.73-.34l-2.49-10s8.1-1.8,7.26-5.17c-1.05-4.23-6.92-2.35-9.22-1.78l-17.22,4.29c-2.31.57-8.47,1.7-7.42,5.93.84,3.36,8.73,1.18,8.73,1.18l2.49,10c.49,2-4.89,3.73-7.39,4.35-2.27.57-1.87,2-1.87,2l11.92,47.8,38.62-9.63-11.92-47.8S177.84,90.93,175.57,91.5Z"/></clipPath><clipPath id="clip-path-8"><path class="cls-1" d="M219.61,80.52c-2.5.62-8.24,1.63-8.73-.34l-2.49-10s8.1-1.8,7.26-5.17c-1.05-4.23-6.92-2.35-9.22-1.78l-17.22,4.29c-2.31.57-8.47,1.7-7.42,5.93.84,3.36,8.73,1.18,8.73,1.18l2.49,10c.49,2-4.89,3.73-7.39,4.35-2.27.57-1.87,2-1.87,2l11.92,47.8,38.62-9.63-11.92-47.8S221.88,80,219.61,80.52Z"/></clipPath><clipPath id="clip-path-9"><path class="cls-1" d="M264,69.46c-2.5.62-8.24,1.63-8.73-.34l-2.49-10s8.1-1.8,7.26-5.17c-1.05-4.23-6.92-2.35-9.22-1.78L233.58,56.5c-2.31.57-8.47,1.7-7.42,5.93.84,3.36,8.73,1.18,8.73,1.18l2.49,10c.49,2-4.89,3.73-7.39,4.35-2.27.57-1.87,2-1.87,2L240,127.77l38.62-9.63-11.92-47.8S266.24,68.89,264,69.46Z"/></clipPath><clipPath id="clip-path-10"><path class="cls-1" d="M309,58.24c-2.5.62-8.24,1.63-8.73-.34l-2.49-10s8.1-1.8,7.26-5.17c-1.05-4.23-6.92-2.35-9.22-1.78l-17.22,4.29c-2.31.57-8.47,1.7-7.42,5.93.84,3.36,8.73,1.18,8.73,1.18l2.49,10c.49,2-4.89,3.73-7.39,4.35-2.27.57-1.87,2-1.87,2L285,116.55l38.62-9.63-11.92-47.8S311.24,57.67,309,58.24Z"/></clipPath><clipPath id="clip-path-11"><path class="cls-1" d="M353,47.26c-2.5.62-8.24,1.63-8.73-.34L341.8,37s8.1-1.8,7.26-5.17c-1.05-4.23-6.92-2.35-9.22-1.78L322.62,34.3c-2.31.57-8.47,1.7-7.42,5.93.84,3.36,8.73,1.18,8.73,1.18l2.49,10c.49,2-4.89,3.73-7.39,4.35-2.27.57-1.87,2-1.87,2l11.92,47.8,38.62-9.63-11.92-47.8S355.28,46.69,353,47.26Z"/></clipPath><clipPath id="clip-path-12"><path class="cls-1" d="M397.37,36.2c-2.5.62-8.24,1.63-8.73-.34l-2.49-10s8.1-1.8,7.26-5.17c-1.05-4.23-6.92-2.35-9.22-1.78L367,23.24c-2.31.57-8.47,1.7-7.42,5.93.84,3.36,8.73,1.18,8.73,1.18l2.49,10c.49,2-4.89,3.73-7.39,4.35-2.27.57-1.87,2-1.87,2l11.92,47.8,38.62-9.63-11.92-47.8S399.64,35.63,397.37,36.2Z"/></clipPath></defs><title>balança_Ativo 8</title><g id="Camada_2" data-name="Camada 2"><g id="tela_1" data-name="tela 1"><polyline class="cls-2" points="960 0 960 662 0 662 0 0 960 0"/><g id="balança" class="cls-3"><rect class="cls-1" x="195.26" y="390.19" width="270.56" height="5.56" transform="translate(126.79 -78.38) rotate(16.69)"/><path class="cls-1" d="M391.14,479.88l-159-47.68,34.91-49a9.13,9.13,0,0,1,11.85-3l100.7,30.19a9.46,9.46,0,0,1,6.24,3.55,9.34,9.34,0,0,1,1.85,6Z"/><rect class="cls-1" x="278.49" y="407.58" width="83" height="41.17" rx="12" ry="12" transform="translate(136.45 -73.86) rotate(16.69)"/><path class="cls-1" d="M345.45,404.73a16.13,16.13,0,0,0,1.16-2.82c2.69-9-2.83-18.57-12.33-21.42s-19.39,2.12-22.08,11.11a16.13,16.13,0,0,0-.58,3l15.2,4.56Z"/><path class="cls-1" d="M344.44,407.55a10.5,10.5,0,0,0,1.26-2.6c2.16-6.74-1.91-18.3-12.33-21.42s-20.24,4.33-22.08,11.11a10.2,10.2,0,0,0-.35,2.62,156.62,156.62,0,0,0,33.5,10.29Z"/><path class="cls-1" d="M223.8,452.31H392.3a3.13,3.13,0,0,1,3.13,3.13v25.08a3.13,3.13,0,0,1-3.13,3.13H223.8a3.13,3.13,0,0,1-3.13-3.13V455.43a3.12,3.12,0,0,1,3.12-3.12Z" transform="translate(147.38 -68.76) rotate(16.69)"/><rect class="cls-1" x="219.62" y="470.43" width="174.75" height="2.17" transform="translate(148.35 -68.3) rotate(16.69)"/><rect class="cls-1" x="216.6" y="480.14" width="174.75" height="2.9" transform="translate(151.12 -67.01) rotate(16.69)"/><rect class="cls-1" x="92.31" y="331.22" width="201.13" height="11.5" rx="5.75" ry="5.75" transform="translate(104.9 -41.2) rotate(16.69)"/><rect class="cls-1" x="93.32" y="331.36" width="201.13" height="4.5" rx="2.25" ry="2.25" transform="translate(103.98 -41.63) rotate(16.69)"/><rect class="cls-1" x="92.63" y="334.14" width="201.13" height="3.5" transform="translate(104.61 -41.34) rotate(16.69)"/><path class="cls-1" d="M183.38,338.77l.29,22.14a2.29,2.29,0,0,0,4.05,1l12.58-18Z"/><rect class="cls-1" x="176.01" y="342.75" width="25.67" height="15.33" rx="4.92" ry="4.92" transform="matrix(0.96, 0.29, -0.29, 0.96, 108.6, -39.47)"/><rect class="cls-1" x="176.01" y="347.7" width="25.67" height="5.47" transform="translate(108.6 -39.47) rotate(16.69)"/><rect class="cls-1" x="375.89" y="416.24" width="201.13" height="11.5" rx="5.75" ry="5.75" transform="translate(141.27 -119.06) rotate(16.69)"/><rect class="cls-1" x="376.89" y="416.38" width="201.13" height="4.5" rx="2.25" ry="2.25" transform="translate(140.35 -119.49) rotate(16.69)"/><rect class="cls-1" x="376.21" y="419.16" width="201.13" height="3.5" transform="translate(140.97 -119.2) rotate(16.69)"/><path class="cls-1" d="M467,423.79l.29,22.14a2.29,2.29,0,0,0,4.05,1l12.58-18Z"/><rect class="cls-1" x="459.59" y="427.77" width="25.67" height="15.33" rx="4.92" ry="4.92" transform="translate(144.96 -117.34) rotate(16.69)"/><rect class="cls-1" x="459.58" y="432.71" width="25.67" height="5.47" transform="translate(144.97 -117.33) rotate(16.69)"/><circle class="cls-4" cx="325" cy="412" r="1" transform="translate(-162.98 604.98) rotate(-73.31)"/><circle class="cls-4" cx="345" cy="421" r="1" transform="translate(-157.35 630.55) rotate(-73.31)"/><circle class="cls-4" cx="356" cy="438" r="1" transform="translate(-165.79 653.21) rotate(-73.31)"/><circle class="cls-4" cx="303" cy="409" r="1" transform="translate(-175.79 581.77) rotate(-73.31)"/><circle class="cls-4" cx="285" cy="417" r="1" transform="translate(-196.28 570.23) rotate(-73.31)"/><path class="cls-1" d="M323,427.18l-.09-6.59a.68.68,0,0,0-1.21-.29L318,425.67Z"/><line class="cls-1" x1="314.08" y1="447.88" x2="320.73" y2="425.71"/></g><g class="cls-3"><path class="cls-1" d="M594.09,405.34c-2.58-5.08-6.39-19-8.22-25.41-3.43-8.48-9.46-26.68-12.24-34.36a26.36,26.36,0,0,0,6.85,2.77s.78-2.81,1.47-5.73c1.77.95,6.26,3,6.26,3s1.66-3.82,2.3-6a43.27,43.27,0,0,0,5,3.68s2.17-4.15,3.7-6.74c1.64.84,6.26,3,6.26,3s.55-3.58,1-5.57c1.29,1.2,4.43,3.64,4.43,3.64s1.22-2.8,3.14-6.31c4.19,11.46,7,23.14,9.63,32.08,2.44,6.27,8.84,20.38,10.64,27.79Z"/><g class="cls-5"><path class="cls-6" d="M615.14,334.29c2.48,22.3.29,21-13.39,33.22,7-.83,13.79-1.59,18.72-2.81-1.5,6.8-6.18,16.81-11.29,18.78-3.24,1.25-9.71-1.46-13.31-4,1.73-.92,4.44-1.8,4.56-3.18-8,1.87-17.14-14.47-25.38-26.7A309.47,309.47,0,0,0,592.26,406l44.19-15.54S626.49,362.11,615.14,334.29Z"/></g><line class="cls-7" x1="603.73" y1="374.05" x2="617.53" y2="366.2"/><path class="cls-7" d="M588.58,379.38s8.72,6.87,16.52,6.64"/><text class="cls-8" transform="translate(598.39 382.16) rotate(-19.37)">A</text><path class="cls-1" d="M637.91,389.79c-2.58-5.08-6.39-19-8.22-25.41-3.43-8.48-9.46-26.68-12.24-34.36a26.36,26.36,0,0,0,6.85,2.77s.78-2.81,1.47-5.73c1.77.95,6.26,3,6.26,3s1.66-3.82,2.3-6a43.27,43.27,0,0,0,5,3.68s2.17-4.15,3.7-6.74c1.64.84,6.26,3,6.26,3s.55-3.58,1-5.57c1.29,1.2,4.43,3.64,4.43,3.64s1.22-2.8,3.14-6.31c4.19,11.46,7,23.14,9.63,32.08,2.44,6.27,8.84,20.38,10.64,27.79Z"/><g class="cls-9"><path class="cls-6" d="M659,318.74c2.48,22.3.29,21-13.39,33.22,7-.83,13.79-1.59,18.72-2.81-1.5,6.8-6.18,16.81-11.29,18.78-3.24,1.25-9.71-1.46-13.31-4,1.73-.92,4.44-1.8,4.56-3.18-8,1.87-17.14-14.47-25.38-26.7a309.47,309.47,0,0,0,17.21,56.37l44.19-15.54S670.32,346.55,659,318.74Z"/></g><line class="cls-7" x1="647.56" y1="358.5" x2="661.36" y2="350.65"/><path class="cls-7" d="M632.41,363.82s8.72,6.87,16.52,6.64"/><text class="cls-8" transform="translate(642.91 366.37) rotate(-19.37)">B</text><path class="cls-1" d="M702.08,313.53c-2.43.85-8,2.39-8.72.48L690,304.32s7.89-2.55,6.74-5.82c-1.44-4.11-7.11-1.69-9.35-.91l-16.74,5.89c-2.24.79-8.27,2.49-6.83,6.59,1.15,3.27,8.8.36,8.8.36l3.41,9.69c.67,1.91-4.52,4.17-6.95,5-2.2.78-1.67,2.21-1.67,2.21l16.34,46.47,37.54-13.2-16.34-46.47S704.28,312.75,702.08,313.53Z"/><g class="cls-10"><path class="cls-11" d="M699.69,310.88c-5.52,4.19-14.28,7.53-14.28,7.53L676,299.09l20.9-7.51S703.77,307.78,699.69,310.88Z"/><path class="cls-11" d="M722.25,361l-16.61,5.84L683.51,319a51.93,51.93,0,0,0,11.29-5.15c2.87-1.83,10.19-1,10.19-1Z"/></g><path class="cls-1" d="M674.57,309.59a56.08,56.08,0,0,0,13.58-4.78"/><path class="cls-1" d="M678.37,320.38a56.07,56.07,0,0,0,13.58-4.78"/><text class="cls-12" transform="translate(687.96 355.26) rotate(-19.37)">9</text></g><g class="cls-3"><path class="cls-1" d="M42.17,124.76c-2.5.62-8.24,1.63-8.73-.34l-2.49-10s8.1-1.8,7.26-5.17c-1.05-4.23-6.92-2.35-9.22-1.78l-17.22,4.29c-2.31.57-8.47,1.7-7.42,5.93.84,3.36,8.73,1.18,8.73,1.18l2.49,10c.49,2-4.89,3.73-7.39,4.35-2.27.57-1.87,2-1.87,2l11.92,47.8,38.62-9.63-11.92-47.8S44.44,124.2,42.17,124.76Z"/><g class="cls-13"><path class="cls-11" d="M40,121.9c-5.89,3.65-14.93,6.16-14.93,6.16l-7.59-20.13L39,102.42S44.4,119.2,40,121.9Z"/><path class="cls-11" d="M57.82,173.89l-17.08,4.26L23.17,128.51a51.93,51.93,0,0,0,11.72-4.08c3-1.55,10.24,0,10.24,0Z"/></g><path class="cls-1" d="M15.15,118.26a56.08,56.08,0,0,0,14-3.48"/><path class="cls-1" d="M17.92,129.36a56.07,56.07,0,0,0,14-3.48"/><text class="cls-8" transform="translate(28.77 163.79) rotate(-14)">1</text><path class="cls-1" d="M86.53,113.7c-2.5.62-8.24,1.63-8.73-.34l-2.49-10s8.1-1.8,7.26-5.17c-1.05-4.23-6.92-2.35-9.22-1.78l-17.22,4.29c-2.31.57-8.47,1.7-7.42,5.93.84,3.36,8.73,1.18,8.73,1.18l2.49,10c.49,2-4.89,3.73-7.39,4.35-2.27.57-1.87,2-1.87,2L62.6,172l38.62-9.63L89.3,114.59S88.8,113.14,86.53,113.7Z"/><g class="cls-14"><path class="cls-11" d="M84.4,110.84C78.52,114.49,69.48,117,69.48,117L61.89,96.88,83.4,91.36S88.76,108.14,84.4,110.84Z"/><path class="cls-11" d="M102.18,162.83,85.1,167.09,67.53,117.45a51.93,51.93,0,0,0,11.72-4.08c3-1.55,10.24,0,10.24,0Z"/></g><path class="cls-1" d="M59.51,107.2a56.08,56.08,0,0,0,14-3.48"/><path class="cls-1" d="M62.28,118.3a56.07,56.07,0,0,0,14-3.48"/><text class="cls-8" transform="translate(70.73 153.33) rotate(-14)">2</text><path class="cls-1" d="M131.21,102.56c-2.5.62-8.24,1.63-8.73-.34l-2.49-10s8.1-1.8,7.26-5.17c-1.05-4.23-6.92-2.35-9.22-1.78l-17.22,4.29c-2.31.57-8.47,1.7-7.42,5.93.84,3.36,8.73,1.18,8.73,1.18l2.49,10c.49,2-4.89,3.73-7.39,4.35-2.27.57-1.87,2-1.87,2l11.92,47.8,38.62-9.63L134,103.45S133.48,102,131.21,102.56Z"/><g class="cls-15"><path class="cls-11" d="M129.08,99.7c-5.89,3.65-14.93,6.16-14.93,6.16l-7.59-20.13,21.51-5.52S133.44,97,129.08,99.7Z"/><path class="cls-11" d="M146.86,151.69l-17.08,4.26-17.57-49.64a51.93,51.93,0,0,0,11.72-4.08c3-1.55,10.24,0,10.24,0Z"/></g><path class="cls-1" d="M104.19,96.06a56.08,56.08,0,0,0,14-3.48"/><path class="cls-1" d="M107,107.16a56.07,56.07,0,0,0,14-3.48"/><text class="cls-8" transform="translate(115.95 142.06) rotate(-14)">3</text><path class="cls-1" d="M175.57,91.5c-2.5.62-8.24,1.63-8.73-.34l-2.49-10s8.1-1.8,7.26-5.17c-1.05-4.23-6.92-2.35-9.22-1.78l-17.22,4.29c-2.31.57-8.47,1.7-7.42,5.93.84,3.36,8.73,1.18,8.73,1.18l2.49,10c.49,2-4.89,3.73-7.39,4.35-2.27.57-1.87,2-1.87,2l11.92,47.8,38.62-9.63-11.92-47.8S177.84,90.93,175.57,91.5Z"/><g class="cls-16"><path class="cls-11" d="M173.44,88.64c-5.89,3.65-14.93,6.16-14.93,6.16l-7.59-20.13,21.51-5.52S177.8,85.94,173.44,88.64Z"/><path class="cls-11" d="M191.22,140.63l-17.08,4.26L156.57,95.25a51.93,51.93,0,0,0,11.72-4.08c3-1.55,10.24,0,10.24,0Z"/></g><path class="cls-1" d="M148.55,85a56.08,56.08,0,0,0,14-3.48"/><path class="cls-1" d="M151.32,96.1a56.07,56.07,0,0,0,14-3.48"/><text class="cls-8" transform="translate(159.35 131.23) rotate(-14)">4</text><path class="cls-1" d="M219.61,80.52c-2.5.62-8.24,1.63-8.73-.34l-2.49-10s8.1-1.8,7.26-5.17c-1.05-4.23-6.92-2.35-9.22-1.78l-17.22,4.29c-2.31.57-8.47,1.7-7.42,5.93.84,3.36,8.73,1.18,8.73,1.18l2.49,10c.49,2-4.89,3.73-7.39,4.35-2.27.57-1.87,2-1.87,2l11.92,47.8,38.62-9.63-11.92-47.8S221.88,80,219.61,80.52Z"/><g class="cls-17"><path class="cls-11" d="M217.48,77.66c-5.89,3.65-14.93,6.16-14.93,6.16L195,63.69l21.51-5.52S221.84,75,217.48,77.66Z"/><path class="cls-11" d="M235.26,129.64l-17.08,4.26L200.61,84.27a51.93,51.93,0,0,0,11.72-4.08c3-1.55,10.24,0,10.24,0Z"/></g><path class="cls-1" d="M192.59,74a56.08,56.08,0,0,0,14-3.48"/><path class="cls-1" d="M195.36,85.12a56.07,56.07,0,0,0,14-3.48"/><text class="cls-8" transform="translate(203.88 120.13) rotate(-14)">5</text><path class="cls-1" d="M264,69.46c-2.5.62-8.24,1.63-8.73-.34l-2.49-10s8.1-1.8,7.26-5.17c-1.05-4.23-6.92-2.35-9.22-1.78L233.58,56.5c-2.31.57-8.47,1.7-7.42,5.93.84,3.36,8.73,1.18,8.73,1.18l2.49,10c.49,2-4.89,3.73-7.39,4.35-2.27.57-1.87,2-1.87,2L240,127.77l38.62-9.63-11.92-47.8S266.24,68.89,264,69.46Z"/><g class="cls-18"><path class="cls-11" d="M261.84,66.6c-5.89,3.65-14.93,6.16-14.93,6.16l-7.59-20.13,21.51-5.52S266.2,63.89,261.84,66.6Z"/><path class="cls-11" d="M279.62,118.58l-17.08,4.26L245,73.2a51.93,51.93,0,0,0,11.72-4.08c3-1.55,10.24,0,10.24,0Z"/></g><path class="cls-1" d="M237,63a56.08,56.08,0,0,0,14-3.48"/><path class="cls-1" d="M239.72,74.06a56.07,56.07,0,0,0,14-3.48"/><text class="cls-8" transform="translate(247.77 109.19) rotate(-14)">6</text><path class="cls-1" d="M309,58.24c-2.5.62-8.24,1.63-8.73-.34l-2.49-10s8.1-1.8,7.26-5.17c-1.05-4.23-6.92-2.35-9.22-1.78l-17.22,4.29c-2.31.57-8.47,1.7-7.42,5.93.84,3.36,8.73,1.18,8.73,1.18l2.49,10c.49,2-4.89,3.73-7.39,4.35-2.27.57-1.87,2-1.87,2L285,116.55l38.62-9.63-11.92-47.8S311.24,57.67,309,58.24Z"/><g class="cls-19"><path class="cls-11" d="M306.84,55.38C301,59,291.91,61.54,291.91,61.54l-7.59-20.13,21.51-5.52S311.2,52.67,306.84,55.38Z"/><path class="cls-11" d="M324.62,107.36l-17.08,4.26L290,62a51.93,51.93,0,0,0,11.72-4.08c3-1.55,10.24,0,10.24,0Z"/></g><path class="cls-1" d="M282,51.74a56.08,56.08,0,0,0,14-3.48"/><path class="cls-1" d="M284.72,62.84a56.07,56.07,0,0,0,14-3.48"/><text class="cls-8" transform="translate(293.25 97.85) rotate(-14)">7</text><path class="cls-1" d="M353,47.26c-2.5.62-8.24,1.63-8.73-.34L341.8,37s8.1-1.8,7.26-5.17c-1.05-4.23-6.92-2.35-9.22-1.78L322.62,34.3c-2.31.57-8.47,1.7-7.42,5.93.84,3.36,8.73,1.18,8.73,1.18l2.49,10c.49,2-4.89,3.73-7.39,4.35-2.27.57-1.87,2-1.87,2l11.92,47.8,38.62-9.63-11.92-47.8S355.28,46.69,353,47.26Z"/><g class="cls-20"><path class="cls-11" d="M350.88,44.39C345,48,336,50.56,336,50.56l-7.59-20.13,21.51-5.52S355.24,41.69,350.88,44.39Z"/><path class="cls-11" d="M368.66,96.38l-17.08,4.26L334,51a51.93,51.93,0,0,0,11.72-4.08c3-1.55,10.24,0,10.24,0Z"/></g><path class="cls-1" d="M326,40.76a56.08,56.08,0,0,0,14-3.48"/><path class="cls-1" d="M328.76,51.86a56.07,56.07,0,0,0,14-3.48"/><text class="cls-8" transform="translate(336.68 87.02) rotate(-14)">8</text><path class="cls-1" d="M397.37,36.2c-2.5.62-8.24,1.63-8.73-.34l-2.49-10s8.1-1.8,7.26-5.17c-1.05-4.23-6.92-2.35-9.22-1.78L367,23.24c-2.31.57-8.47,1.7-7.42,5.93.84,3.36,8.73,1.18,8.73,1.18l2.49,10c.49,2-4.89,3.73-7.39,4.35-2.27.57-1.87,2-1.87,2l11.92,47.8,38.62-9.63-11.92-47.8S399.64,35.63,397.37,36.2Z"/><g class="cls-21"><path class="cls-11" d="M395.24,33.33c-5.89,3.65-14.93,6.16-14.93,6.16l-7.59-20.13,21.51-5.52S399.6,30.63,395.24,33.33Z"/><path class="cls-11" d="M413,85.32l-17.08,4.26L378.37,39.94a51.93,51.93,0,0,0,11.72-4.08c3-1.55,10.24,0,10.24,0Z"/></g><path class="cls-1" d="M370.35,29.69a56.08,56.08,0,0,0,14-3.48"/><path class="cls-1" d="M373.12,40.79a56.07,56.07,0,0,0,14-3.48"/><text class="cls-8" transform="translate(381.16 75.93) rotate(-14)">9</text></g><g class="cls-3"><text class="cls-22" transform="translate(720.45 164.33) rotate(15.36)">B&lt;5+2</text></g><g class="cls-3"><rect class="cls-1" x="846.47" y="269.45" width="44.12" height="9.62" transform="translate(37.17 -97.77) rotate(6.58)"/><rect class="cls-1" x="844.12" y="289.78" width="44.12" height="9.62" transform="translate(39.49 -97.37) rotate(6.58)"/></g><rect class="cls-23" y="438.76" width="960" height="223.24"/><rect class="cls-24" y="417.09" width="960" height="35.76"/><rect class="cls-25" y="403" width="960" height="14.09"/></g></g></svg>