<svg xmlns="http://www.w3.org/2000/svg" viewBox="0 0 497 177"><defs><style>.cls-1{opacity:0.14;}.cls-2{fill:#1d3d47;}.cls-3{fill:#bf3434;}.cls-4{fill:#f9f9f9;}.cls-5{fill:#630e0e;}.cls-6{fill:#981212;}.cls-7{fill:#4d4d4d;}.cls-8{fill:#373737;}.cls-9{fill:#1e171f;}.cls-10{fill:#bbb;}.cls-11,.cls-14{fill:#d9d9d9;}.cls-12{opacity:0.44;}.cls-13{fill:none;stroke:#630e0e;stroke-miterlimit:10;}.cls-14{opacity:0.24;}</style></defs><title>balança_Ativo 13</title><g id="Camada_2" data-name="Camada 2"><g id="tela_2" data-name="tela 2"><g id="balança"><ellipse class="cls-1" cx="246" cy="162" rx="119" ry="15"/><rect class="cls-2" x="113" y="69" width="271" height="6"/><path class="cls-3" d="M330.41,138H164.85l19.32-56.77A9.11,9.11,0,0,1,194.64,75H299.49a9.44,9.44,0,0,1,7,1.61A9.31,9.31,0,0,1,310,81.82Z"/><rect class="cls-4" x="207" y="88" width="83" height="41" rx="12" ry="12"/><path class="cls-5" d="M265.28,79a16.13,16.13,0,0,0,.3-3c0-9.38-8-17-18-17s-18,7.6-18,17a16.13,16.13,0,0,0,.3,3h35.31Z"/><path class="cls-6" d="M265.13,82.09a10.5,10.5,0,0,0,.46-2.85c.14-7.07-7.09-17-18-17s-18.14,10-18,17a10.2,10.2,0,0,0,.42,2.61A156.56,156.56,0,0,0,247.9,83,156.6,156.6,0,0,0,265.13,82.09Z"/><rect class="cls-7" x="161" y="135" width="175" height="31" rx="3.13" ry="3.13"/><rect class="cls-8" x="161" y="153" width="175" height="2"/><rect class="cls-9" x="161" y="163" width="175" height="3"/><rect class="cls-10" y="53" width="201" height="11" rx="5.5" ry="5.5"/><rect class="cls-11" y="52" width="201" height="5" rx="2.25" ry="2.25"/><rect class="cls-10" y="55" width="201" height="4"/><path class="cls-2" d="M91.09,63l6.63,21.12a2.29,2.29,0,0,0,4.16-.25L108.76,63Z"/><rect class="cls-2" x="87" y="65" width="26" height="15" rx="4.92" ry="4.92"/><rect class="cls-11" x="87" y="70" width="26" height="5"/><rect class="cls-10" x="296" y="53" width="201" height="11" rx="5.5" ry="5.5"/><rect class="cls-11" x="296" y="52" width="201" height="5" rx="2.25" ry="2.25"/><rect class="cls-10" x="296" y="55" width="201" height="4"/><path class="cls-2" d="M387.14,63l6.63,21.12a2.29,2.29,0,0,0,4.16-.25L404.81,63Z"/><rect class="cls-2" x="383" y="65" width="26" height="15" rx="4.92" ry="4.92"/><rect class="cls-11" x="383" y="70" width="26" height="5"/><circle class="cls-12" cx="248" cy="92" r="1"/><circle class="cls-12" cx="271" cy="95" r="1"/><circle class="cls-12" cx="285" cy="108" r="1"/><circle class="cls-12" cx="226" cy="95" r="1"/><circle class="cls-12" cx="211" cy="108" r="1"/><path class="cls-5" d="M250.63,107l-2-6.29a.68.68,0,0,0-1.24.07l-2,6.22Z"/><line class="cls-13" x1="248" y1="129" x2="248" y2="105"/></g><rect class="cls-14" width="201" height="54" rx="12" ry="12"/><rect class="cls-11" y="39" width="201" height="15"/><rect class="cls-14" x="296" width="201" height="54" rx="12" ry="12"/><rect class="cls-11" x="296" y="39" width="201" height="15"/></g></g></svg>