<svg xmlns="http://www.w3.org/2000/svg" viewBox="0 0 498.5 212.54"><defs><style>.cls-1{opacity:0.14;}.cls-2{fill:#bf3434;}.cls-3{fill:#f9f9f9;}.cls-4{fill:#630e0e;}.cls-5{fill:#1d3d47;}.cls-6{fill:#981212;}.cls-7{fill:#4d4d4d;}.cls-8{fill:#373737;}.cls-9{fill:#1e171f;}.cls-10{fill:#bbb;}.cls-11,.cls-13{fill:#d9d9d9;}.cls-12{fill:none;stroke:#630e0e;stroke-miterlimit:10;}.cls-13{opacity:0.24;}</style></defs><title>balança_Ativo 22</title><g id="Camada_2" data-name="Camada 2"><g id="tela_5" data-name="tela 5"><g id="balança"><ellipse class="cls-1" cx="247" cy="197.54" rx="119" ry="15"/><path class="cls-2" d="M331.41,173.54H165.85l19.32-56.77a9.11,9.11,0,0,1,10.47-6.23H300.49a9.44,9.44,0,0,1,7,1.61,9.31,9.31,0,0,1,3.49,5.21Z"/><rect class="cls-3" x="208" y="123.54" width="83" height="41" rx="12" ry="12"/><path class="cls-4" d="M266.28,114.54a16.13,16.13,0,0,0,.3-3c0-9.38-8-17-18-17s-18,7.6-18,17a16.13,16.13,0,0,0,.3,3h35.31Z"/><rect class="cls-5" x="108.26" y="101.53" width="280.73" height="6.01" transform="translate(30.88 -54.62) rotate(13.36)"/><path class="cls-6" d="M266.13,117.64a10.5,10.5,0,0,0,.46-2.85c.14-7.07-7.09-17-18-17s-18.14,10-18,17a10.2,10.2,0,0,0,.42,2.61,156.56,156.56,0,0,0,17.81,1.1A156.6,156.6,0,0,0,266.13,117.64Z"/><rect class="cls-7" x="162" y="170.54" width="175" height="31" rx="3.13" ry="3.13"/><rect class="cls-8" x="162" y="188.54" width="175" height="2"/><rect class="cls-9" x="162" y="198.54" width="175" height="3"/><rect class="cls-10" y="52.5" width="201" height="11" rx="5.5" ry="5.5"/><rect class="cls-11" y="51.5" width="201" height="5" rx="2.25" ry="2.25"/><rect class="cls-10" y="54.5" width="201" height="4"/><path class="cls-5" d="M91.09,62.5l6.63,21.12a2.29,2.29,0,0,0,4.16-.25l6.88-20.88Z"/><rect class="cls-5" x="87" y="64.5" width="26" height="15" rx="4.92" ry="4.92"/><rect class="cls-11" x="87" y="69.5" width="26" height="5"/><rect class="cls-10" x="297.5" y="117.42" width="201" height="11" rx="5.5" ry="5.5"/><rect class="cls-11" x="297.5" y="116.42" width="201" height="5" rx="2.25" ry="2.25"/><rect class="cls-10" x="297.5" y="119.42" width="201" height="4"/><path class="cls-5" d="M388.64,127.42l6.63,21.12a2.29,2.29,0,0,0,4.16-.25l6.88-20.87Z"/><rect class="cls-5" x="384.5" y="129.42" width="26" height="15" rx="4.92" ry="4.92"/><rect class="cls-11" x="384.5" y="134.42" width="26" height="5"/><path class="cls-4" d="M261.16,146.29l5.63-3.43a.68.68,0,0,1,.88.87l-2.56,6Z"/><line class="cls-12" x1="248.63" y1="164.57" x2="264.46" y2="146.53"/></g><rect class="cls-13" width="201" height="54" rx="12" ry="12"/><rect class="cls-11" y="39" width="201" height="15"/><rect class="cls-13" x="297.5" y="64.92" width="201" height="54" rx="12" ry="12"/><rect class="cls-11" x="297.5" y="103.92" width="201" height="15"/></g></g></svg>