<svg xmlns="http://www.w3.org/2000/svg" viewBox="0 0 592.15 134.62"><defs><style>.cls-1{fill:#fff;}.cls-2{fill:#a89c81;}.cls-3{font-size:33px;fill:#533a2a;font-family:HelveticaRounded-Bold, HelveticaRounded;font-weight:700;}.cls-4{fill:#e5e5e5;}</style></defs><title>balança_Ativo 16</title><g id="Camada_2" data-name="Camada 2"><g id="tela_2" data-name="tela 2"><rect class="cls-1" width="592.15" height="134.62" rx="25.22" ry="25.22"/><rect class="cls-2" x="17.04" y="12.75" width="11.81" height="11.81" rx="5.87" ry="5.87"/><rect class="cls-2" x="17.04" y="110.06" width="11.81" height="11.81" rx="5.87" ry="5.87"/><rect class="cls-2" x="564.93" y="12.75" width="11.81" height="11.81" rx="5.87" ry="5.87"/><rect class="cls-2" x="564.93" y="110.06" width="11.81" height="11.81" rx="5.87" ry="5.87"/><text class="cls-3" transform="translate(44.99 41.41)">A</text><text class="cls-3" transform="translate(103.92 41.41)">B</text><text class="cls-3" transform="translate(164.2 41.41)">C</text><text class="cls-3" transform="translate(223.43 41.41)">D</text><text class="cls-3" transform="translate(284.07 41.41)">E</text><text class="cls-3" transform="translate(344.82 41.41)">F</text><text class="cls-3" transform="translate(402.48 41.41)">G</text><text class="cls-3" transform="translate(462.5 41.41)">H</text><text class="cls-3" transform="translate(529.97 41.41)">I</text><rect class="cls-4" x="35.33" y="52.89" width="41.33" height="36.67" rx="8.67" ry="8.67"/><rect class="cls-4" x="95.17" y="52.39" width="41.33" height="36.67" rx="8.67" ry="8.67"/><rect class="cls-4" x="155.45" y="52.89" width="41.33" height="36.67" rx="8.67" ry="8.67"/><rect class="cls-4" x="215.27" y="53.14" width="41.33" height="36.67" rx="8.67" ry="8.67"/><rect class="cls-4" x="275.12" y="52.64" width="41.33" height="36.67" rx="8.67" ry="8.67"/><rect class="cls-4" x="335.39" y="53.14" width="41.33" height="36.67" rx="8.67" ry="8.67"/><rect class="cls-4" x="394.61" y="52.64" width="41.33" height="36.67" rx="8.67" ry="8.67"/><rect class="cls-4" x="454.46" y="52.14" width="41.33" height="36.67" rx="8.67" ry="8.67"/><rect class="cls-4" x="514.73" y="52.64" width="41.33" height="36.67" rx="8.67" ry="8.67"/></g></g></svg>