<svg xmlns="http://www.w3.org/2000/svg" xmlns:xlink="http://www.w3.org/1999/xlink" viewBox="0 0 32.7 59.48"><defs><style>.cls-1{fill:#25374a;}.cls-2{clip-path:url(#clip-path);}.cls-3{opacity:0.15;}.cls-4{fill:#334d65;}.cls-5{font-size:25.68px;fill:#5a8096;font-family:Montserrat-Bold, Montserrat;font-weight:700;}</style><clipPath id="clip-path"><path class="cls-1" d="M30.05,18.06c-2.07,0-6.75-.33-6.75-2V7.83S30,8,30,5.21C30,1.7,25,2,23.12,2H8.83C6.92,2,1.89,1.7,1.89,5.21,1.89,8,8.47,7.83,8.47,7.83V16.1c0,1.63-4.55,2-6.62,2C0,18.06,0,19.3,0,19.3V59H32V19.3S31.93,18.06,30.05,18.06Z"/></clipPath></defs><title>balança_Ativo 29</title><g id="Camada_2" data-name="Camada 2"><g id="tela_5" data-name="tela 5"><path class="cls-1" d="M30.05,18.06c-2.07,0-6.75-.33-6.75-2V7.83S30,8,30,5.21C30,1.7,25,2,23.12,2H8.83C6.92,2,1.89,1.7,1.89,5.21,1.89,8,8.47,7.83,8.47,7.83V16.1c0,1.63-4.55,2-6.62,2C0,18.06,0,19.3,0,19.3V59H32V19.3S31.93,18.06,30.05,18.06Z"/><g class="cls-2"><path class="cls-3" d="M28.94,15.41c-5.31,1.71-12.86,1.91-12.86,1.91l-2-17.2L32,0S32.87,14.15,28.94,15.41Z"/><path class="cls-3" d="M32.7,59.48H18.53L14.48,17.29a41.81,41.81,0,0,0,9.95-.9c2.67-.62,8,2,8,2Z"/></g><path class="cls-1" d="M10.21,7.72a45.15,45.15,0,0,0,11.59,0"/><path class="cls-4" d="M10.21,7.72a22.69,22.69,0,0,1,2.93-.53A26.76,26.76,0,0,1,16,7a24.89,24.89,0,0,1,2.86.15,21.38,21.38,0,0,1,2.93.54A8,8,0,0,1,19,8.86a14.26,14.26,0,0,1-2.95.3,14.11,14.11,0,0,1-3-.3A7.93,7.93,0,0,1,10.21,7.72Z"/><path class="cls-4" d="M10.21,16.93a22.68,22.68,0,0,1,2.93-.53A26.76,26.76,0,0,1,16,16.24a24.9,24.9,0,0,1,2.86.15,21.4,21.4,0,0,1,2.93.54A8,8,0,0,1,19,18.06a14.26,14.26,0,0,1-2.95.3,14.11,14.11,0,0,1-3-.3A7.93,7.93,0,0,1,10.21,16.93Z"/><text class="cls-5" transform="translate(11.03 45.98)">1</text></g></g></svg>