<svg xmlns="http://www.w3.org/2000/svg" viewBox="0 0 223.91 27.05"><defs><style>.cls-1{opacity:0.57;}.cls-2{font-size:19px;font-family:Kalam-Light, Kalam;}.cls-2,.cls-3{fill:#fff;}</style></defs><title>balança_Ativo 11</title><g id="Camada_2" data-name="Camada 2"><g id="tela_2" data-name="tela 2"><g class="cls-1"><text class="cls-2" transform="translate(106.49 16.41)">Retirar pesos</text></g><g class="cls-1"><path class="cls-3" d="M99.93,12.48c0-.06,0-.14-.16-.07l0,.19Z"/><path class="cls-3" d="M98.89,12.53c-.14.13-.28.34-.12.44.11-.21.17-.16.28-.4.13-.07.26,0,.26,0s.23,0,.27-.17a.73.73,0,0,0-.66.21C98.85,12.62,98.89,12.56,98.89,12.53Z"/><path class="cls-3" d="M84.89,16.4h0Z"/><path class="cls-3" d="M76.06,18.06c.07,0,.09,0,.09-.05S76,18,76.06,18.06Z"/><path class="cls-3" d="M74.52,18.13h.09A.11.11,0,0,0,74.52,18.13Z"/><path class="cls-3" d="M84.89,16.4h-.25C84.64,16.46,84.78,16.42,84.89,16.4Z"/><path class="cls-3" d="M97.12,13.57a.42.42,0,0,0,.11-.08l-.11.06Z"/><path class="cls-3" d="M88.7,15.3l.07,0,0-.08Z"/><path class="cls-3" d="M91.62,14.45c-.07,0-.05.15-.06.22a.22.22,0,0,1,.12-.13A.19.19,0,0,0,91.62,14.45Z"/><path class="cls-3" d="M96.29,13.24l.07,0Z"/><path class="cls-3" d="M86.59,15.82l0,0A.07.07,0,0,0,86.59,15.82Z"/><path class="cls-3" d="M3.08,9.51v0S3.06,9.5,3.08,9.51Z"/><path class="cls-3" d="M.16,7.39h0l0-.07Z"/><path class="cls-3" d="M71.72,18.33h0C71.81,18.3,71.76,18.31,71.72,18.33Z"/><path class="cls-3" d="M46.07,19.13c.28.15-.48.12-.06.3C46,19.37,46.43,19.24,46.07,19.13Z"/><path class="cls-3" d="M97,13.57l-.12,0Z"/><path class="cls-3" d="M46,19.43h0l0,0Z"/><path class="cls-3" d="M65.31,19.07a.19.19,0,0,0,.07.06S65.36,19.09,65.31,19.07Z"/><path class="cls-3" d="M70.12,18.81h0Z"/><path class="cls-3" d="M62.83,19.45a.34.34,0,0,0-.18,0l0,0A.17.17,0,0,1,62.83,19.45Z"/><polygon class="cls-3" points="60.23 19.56 60.28 19.59 60.37 19.58 60.23 19.56"/><path class="cls-3" d="M10.48,12.47a.43.43,0,0,1-.07-.16C10.42,12.42,10,12.32,10.48,12.47Z"/><path class="cls-3" d="M97.1,13.49a.09.09,0,0,1-.05.08l.08,0S97.12,13.5,97.1,13.49Z"/><path class="cls-3" d="M62.79,20.56h0Z"/><path class="cls-3" d="M28.52,17.75h-.1A.15.15,0,0,0,28.52,17.75Z"/><path class="cls-3" d="M61.14,20.63a.7.7,0,0,0-.24-.09l0,0Z"/><path class="cls-3" d="M10.41,12.31h0Z"/><path class="cls-3" d="M7.73,11.63c.37.15.24-.1.36-.16.46.13.15.21.27.36a6,6,0,0,1,.77.07s0,.06,0,.08c.34,0,.87.33,1.27.28a.12.12,0,0,1,0,.06.36.36,0,0,1,0-.26c.17.06.35,0,.37.15-.1,0-.13,0-.19,0l.19,0c.1.22-.26,0-.3.09a4.6,4.6,0,0,1,1.05.22c0,.18-.63-.17-.33.1l-.38-.21c.22.36-.24-.11-.05.27.52.24.63.13,1.14.37.15,0,0-.15.16-.19.81.11.45.62,1.08.6.18-.05.31-.24.67,0l-.2.14c.51.19.39-.16.89.14-.12,0-.43-.08-.36,0,.3.26.28,0,.56.07V14c.56.16,1.21.26,1.84.41,0,0-.17.06,0,.15a11.66,11.66,0,0,1,2.38.87l.33-.06c.07,0,.11.1,0,.11.28.14,0-.08.2-.1s.2.14.08.16a5.34,5.34,0,0,1,2.06.47h-.12c.41.18.56-.16.92.08h-.08a15.09,15.09,0,0,1,2.64.84c.19-.17.91.31,1,0a4.68,4.68,0,0,0,1.07.55c.2.06.34-.11.6-.08l0,.15.37-.08.14.22h.24c-.09,0-.18-.11-.16-.15a1.31,1.31,0,0,1,.87.37L30,18c0,.06-.18,0-.3.06.5-.06.05.18.51.12-.05,0,0-.08.06-.11a2.76,2.76,0,0,0,1,.27l-.09.09c.64.16,1.38.2,2.11.33-.25-.09-.16-.27.06-.25l.06.18c.16-.07-.21-.1.09-.17s.15.21,0,.24h.34c0,.05-.07.06-.1.12.15-.08.54.26.77.12v.05c.73.13,1.07.11,1.67.2,0-.14.26-.07.46-.16a11.07,11.07,0,0,0,1.43.36c.38,0,.12-.1.3-.16,0,.13.54.19.25.24a12.68,12.68,0,0,0,1.63.06c-.08-.06-.18-.1-.12-.13s.32.09.3.15h0c.92-.08,2,.62,2.79.41h0l.76-.07c.34.05-.21.08,0,.18.82-.14,1.27.14,1.95.06.49.41,1.83.08,2.51.36l0-.09c.18-.08.21.06.35.09s-.19-.09-.08-.13c1.53,0,3.14.27,4.7.38.57,0,.33-.45,1-.22l-.21.16c1.15-.17,2.36,0,3.49-.18-.07,0-.07.09-.18.09.24.12.88,0,.88-.1.18,0,0,.09.15.14s.6-.16.73,0-.07,0-.11.05c.15-.06.73,0,.57-.15.43,0,.81-.1,1.15,0,.21-.16.73,0,.79-.18,0,.23.75.15,1,0-.09.07.24.06.14.16.31,0,.58-.08.52-.19.58.23,1.11-.3,1.45,0,.9-.19,1.73-.33,2.54-.46,0,.24-.9.1-.84.33a11.29,11.29,0,0,1,2-.42c.2,0-.1.11-.17.15.76-.17,1.49-.14,2.16-.33,0,0-.07.05-.14.08.13,0,.32,0,.29-.1l-.13,0c-.23-.13.5-.36.51-.45-.19.32.68,0,.37.4.09,0,.19-.09.16-.16.13,0,.18,0,.06.13.47-.12.29-.21.73-.26,0,0-.08.08-.12.14a1.43,1.43,0,0,1,.79-.26s0,.07-.08.08a9.91,9.91,0,0,1,1.75-.41c-.17.25.25,0,.31.21l.36-.12-.16-.07a5.09,5.09,0,0,1,.88-.22l-.23.12.6-.14h-.36c.31-.15-.07-.23.37-.25-.08,0,.33-.05.51,0h0a1,1,0,0,1,.55-.17c.07,0,0,.21,0,.24.13-.18.75-.17.92-.38a.12.12,0,0,0,0,.16l.11-.15c.16,0,.18,0,.17.11.46-.06-.19-.21.37-.21,0,0,0,0-.1.07.55-.05,1-.28,1.53-.31.18.16-.42.13-.23.25.71-.16,1.43-.51,2.12-.62h-.13c0-.28.54,0,.86-.18-.08,0-.08.17-.06.13a8.8,8.8,0,0,0,1.64-.52l-.07.09c.29,0,.73-.14,1-.19.07-.09.24-.12.12-.19,1,.15,1.7-.62,2.59-.53-.1,0-.22.12-.14.1l.67-.25c-.08-.1-.11,0-.28-.09a.89.89,0,0,1,.42-.24c-.29.16.05.18.2.2,0,0,0-.08,0-.11.41.1,0-.24.53-.24v.07a2.22,2.22,0,0,1,.53-.24c.12.11-.18.11-.16.22.28-.08.48-.4.76-.34-.11.07-.28.12-.38.19a.92.92,0,0,0,.55,0h0l.49-.07h-.13c.25-.44.69-.27,1.09-.62-.39.34,0,.14,0,.3s.33,0,.29.05c.19-.18.4,0,.65-.28,0,0,.24-.07.22.06.27-.13-.09-.06-.09-.13.39-.3,1.09-.13,1.66-.55.52-.26.56-.46,1-.7.19,0-.08.22-.08.22a1.6,1.6,0,0,0,.74-.25c0,.06,0,.07.12.1s.08-.21.38-.24a.76.76,0,0,1-.14.26c.23-.13.44-.29.68-.42.09.06-.11.18-.18.26.27-.13.71-.33.75-.49l-.2,0c.1,0,.09.09,0,.14s-.36.08-.39,0l.17-.09c-.28-.2-.7.29-1.07.4l.08-.25-.31.29c-.1,0-.19-.12,0-.21-.29,0-.21.15-.46.11,0,0,0,0,0,0l-.23.14c0-.06-.09-.13.08-.15-.49,0-.68.4-.9.3l0,0c-.61.27,0,.16-.43.49l-.43-.26,0,.17c-.07,0-.2,0-.19,0-.21.18.06.05,0,.19-.36,0-.85.34-1,.13-.08.15.33,0,0,.17-.17-.22-.38.16-.7.13,0-.16.34-.17,0-.2-.11.27-.58.12-.81.23,0,.18-.51.23-.9.41a11,11,0,0,0-1.2.16v0c0,.2-.43.27-.71.38,0-.11,0-.17.17-.25l-.27.07a.56.56,0,0,1-.29.19l0-.15a4.69,4.69,0,0,1-1.17.39c0,.13.46.25,0,.46,0-.06-.08-.17,0-.23a.46.46,0,0,1-.23.08l.17-.16c-.22,0-.09.12-.26.15,0-.1-.14,0-.14-.12s.16,0,.21-.05a1.08,1.08,0,0,1-.53,0c0,.05,0,.13-.1.18-.36.1-.15-.08-.38-.08-.07.09-.32.08-.29.22s-.14,0-.19-.07-.87.23-.62.33h0a12.08,12.08,0,0,1-1.9.41v0a6.52,6.52,0,0,0-1,.37c-.11,0-.27,0-.24-.1a1.42,1.42,0,0,1-.71.16c.26-.14-.11-.05.28-.12a1.45,1.45,0,0,0-.84.18c.11-.15-.31-.1-.47,0l.27,0a3.41,3.41,0,0,1-.54.1l.06-.18c-.78-.06-1.28.6-1.91.37-.18.15.42,0,.27.17a3.91,3.91,0,0,1-.86-.12c-.49,0-.4.31-.9.33.07,0,.16.19-.2.31s-.46-.18-.25-.26.12,0,.12,0,.25-.09.1-.13l0,.07c-.18,0-.65.05-.56-.06-.25.1-.1.11.1.11-.46,0-.69.11-1.16.13.08,0,.15.08.08.09-.68,0-.28.16-.73.25-.27-.05.06-.23-.39-.09-.29,0-.08-.15,0-.21a2.32,2.32,0,0,1-1,0l.21-.08a1.53,1.53,0,0,1-.34.07l.14.1c-.13,0-.24,0-.24,0s.13.18-.12.32c-.18,0-.52.14-.59,0,.55,0-.08-.15.37-.24a.91.91,0,0,1-.32,0s0,0,0,0c-.53-.07-.21.21-.75.28.06-.1-.14-.15-.23-.12.22,0,.12.14-.07.22-.35,0-.37.09-.55.1h.21c-.06.1-.23.1-.47.16,0-.07.21-.07.12-.09-.25.18-.62-.1-1,0-.18,0,0-.16-.19-.19-.4.16-.46-.07-.89.07.14.11.16.07-.14.22l.71-.16L68,19.1c.22,0,.45-.12.58-.12-.21.12-.19.09-.08.18-.32-.15-.58.17-.94.08l0-.3c-.53-.07-.91.24-1.59.21l.22,0c-.08.12-.41,0-.63.11,0-.1-.13-.13-.22-.18s-.49,0-.54.23l-.31-.11c-.55,0-.6.33-1.13.33.15-.12-.09-.17.25-.27-.17,0-.33,0-.33.07s-.48.16-.64.07-.09.15-.29.15c0,0,0,0,0,0s-.3.08-.13.18c-.55-.28-1.51.09-2-.16-.38,0-.84.1-1.19.12,0,0,0,0,.07,0-.48-.08-.29.29-.83.19-.28-.16.29-.09.11-.15-.08-.32-.66.05-1-.13l.09,0c-.28-.11-.68.13-1.14.11,0,0,0,0,0,0a4.45,4.45,0,0,1-1.35.28c.14-.13.2-.07.12-.2s.06.21-.34.25c-.13-.07-.41-.14-.45-.28h.37c-.19-.18-.48,0-.68,0l0-.08c-.57,0-.58.21-1.19.18l.06.06c-.34.19-.28-.12-.62,0l-.1-.2a10.67,10.67,0,0,1-1.18.2,4.69,4.69,0,0,1,1-.29,2.25,2.25,0,0,0-.86.09.58.58,0,0,1,.29,0,2,2,0,0,1-1.07.2c.09-.38-1.13-.16-1.43-.48a16.76,16.76,0,0,1-2.42-.17c.3.31-.26,0-.23.3-.21,0-.29,0-.31,0l-.62-.24c-.14-.1.2,0,.19-.12-.45-.06-.18-.15-.48-.25.05.11-.17.14-.43.08l.35.17c-.65.11-.53-.3-1.18-.2l.21-.08c-.33,0-1.21-.11-1.56.11-.05,0-.12-.13,0-.14a16.66,16.66,0,0,1-2.37-.17l.07-.07c-.15,0-.27.11-.45,0,0,0,.07-.07,0-.08a1.36,1.36,0,0,1-.59,0l.18-.06a8.11,8.11,0,0,0-1.85,0c0-.22-.56-.38-.85-.46l0,0a21.08,21.08,0,0,0-2.37-.1,16.7,16.7,0,0,0-2.5-.68c.12.06-.05.17-.2.16s-.56,0-.49-.15l.07,0c-.11-.22-.51-.25-.81-.32l-.1.25c-.72-.54-2.13-.29-2.49-.73-.21,0-.44,0-.65,0l0-.14a10.33,10.33,0,0,0-1.45-.36l.16-.07c-.37-.1-.57.29-.91.21l-.05-.23A7.06,7.06,0,0,0,23,15.27a.14.14,0,0,1,.16-.06c-.3-.08-1.13-.44-1.1-.13,0-.18-.65-.21-1-.22l.09-.12a1.29,1.29,0,0,1-.78.06c-.09,0-.05-.13.06-.06-.3-.16-.29.06-.66-.13l.17,0a.62.62,0,0,0-.53,0c-.23,0-.62-.22-.63-.36a.47.47,0,0,1-.46,0c0-.05.07-.06.11-.06-.52-.26-.87-.1-1.2-.35a.1.1,0,0,0,0-.1c.44.14.78.26.75.25s-.31-.25,0-.34a2.84,2.84,0,0,1-1.18-.11.17.17,0,0,1,0-.06h0a.5.5,0,0,0-.22,0,2,2,0,0,0-.27-.13c0-.11-.38-.19-.56-.25,0,.14-.25,0-.07.22,0,0,0,0,.16,0h.06l.44.14a.57.57,0,0,1-.49-.11l-.31.13c-.18-.27-.6-.52-.63-.66a4.73,4.73,0,0,0-1.69-.24c-.16,0-.15-.13-.19-.19a1.05,1.05,0,0,0,.26,0c-.32,0-.9-.3-1-.15-.35-.21.27-.08-.26-.24L12,12c-.92-.64-1.82-.18-2.82-1,.07.05.1.08.11.11-1.22-.65-2.7-.9-3.84-1.68-.33-.2-.42-.11-.67-.12l0-.17H4.37c-.58-.11-.75-.74-1.51-.82l0,.13c-.23-.12-.78-.28-.69-.37s-.12.06-.19,0L2,8l-.64-.15c-.42-.26.2-.25-.44-.57-.26-.09-.79-.12-.72,0s.23.16.2.24L.21,7.41c-.14.19-.42.32.06.73l.44.05.07.16L.46,8.2c.14.18.29.15.45.15A.27.27,0,0,0,1,8.55l.47,0c0,.1-.24.08,0,.25.22,0-.08-.26.24-.19.14.18,0,.24.3.25,0,.07-.06.08-.15.07.22,0,.52.2.67.13.14.21.66.26.55.45a1.45,1.45,0,0,1,.59.07c-.43.1.66.31.46.53.34-.11.91.28,1.39.34,0,0-.09,0-.13,0a1.88,1.88,0,0,1,.41.32c.11-.17.5-.05.75-.08.22.3-.27.14-.24.34,0-.15.58.06.53-.1.18.2.17.13.23.33.13-.21.23,0,.47,0,.28.25,0,.25.39.33C8.09,11.68,7.73,11.63,7.73,11.63Zm8.87,2.73h0l-.18,0Zm.74.23L17,14.49c0-.05,0-.09.11-.07S17.25,14.52,17.34,14.59Zm-1.27-1.42c.12,0,.15.06.16.09L16,13.21h0A.17.17,0,0,1,16.08,13.17Z"/><path class="cls-3" d="M15.81,13.28h-.05l.06.05.05,0Z"/><path class="cls-3" d="M85,16.4h0Z"/><polygon class="cls-3" points="27.66 17.63 27.67 17.59 27.59 17.61 27.66 17.63"/><path class="cls-3" d="M89.27,15.81l.06,0Z"/><path class="cls-3" d="M91.06,15.34l.27,0Z"/><path class="cls-3" d="M92.44,15a.16.16,0,0,0,0-.07h0Z"/><path class="cls-3" d="M70.33,19.74h-.05C70.15,19.79,70.23,19.77,70.33,19.74Z"/><path class="cls-3" d="M76.95,18.46l-.2.1C76.86,18.55,77,18.54,76.95,18.46Z"/><polygon class="cls-3" points="62.84 20.56 62.84 20.56 62.79 20.56 62.84 20.56"/><path class="cls-3" d="M76.43,18.6a.7.7,0,0,0,.31,0A1.07,1.07,0,0,0,76.43,18.6Z"/><path class="cls-3" d="M98.33,13.16l.07,0a0,0,0,0,1,0,0Z"/><path class="cls-3" d="M98.39,13.12l.07,0S98.4,13.1,98.39,13.12Z"/><path class="cls-3" d="M98.6,13l-.14.09C98.51,13.06,98.58,13,98.6,13Z"/><path class="cls-3" d="M96.52,13.71v.06A.07.07,0,0,0,96.52,13.71Z"/><path class="cls-3" d="M96,13.91a1.9,1.9,0,0,0,.53-.1v0C96.46,13.87,96.08,13.79,96,13.91Z"/><path class="cls-3" d="M93.52,14l.47-.1c-.1,0-.22-.06,0-.14C93.35,13.82,94.13,13.87,93.52,14Z"/><path class="cls-3" d="M92.08,14.39c.24-.1,0-.07,0-.11S91.89,14.4,92.08,14.39Z"/><path class="cls-3" d="M81.72,17v-.13C81.53,16.94,81.73,16.93,81.72,17Z"/><polygon class="cls-3" points="79.84 18.06 80.05 18.1 80.12 17.97 79.84 18.06"/><polygon class="cls-3" points="78.49 17.39 78.57 17.36 78.25 17.47 78.49 17.39"/><path class="cls-3" d="M60.69,19.42l.07.15C60.89,19.54,60.91,19.36,60.69,19.42Z"/><path class="cls-3" d="M53,19.65a.43.43,0,0,0-.44-.06A3,3,0,0,0,53,19.65Z"/><polygon class="cls-3" points="29.94 16.82 30.11 16.8 29.81 16.79 29.94 16.82"/><path class="cls-3" d="M100.83,12.46s-.11-.09-.1-.07l.12.11Z"/><path class="cls-3" d="M100.55,12.32a1.69,1.69,0,0,0,.28.25l-.2-.2s.05,0,.1.06,0,0,0-.06-.13-.06-.06,0Z"/><path class="cls-3" d="M99.61,13.05h0Z"/><path class="cls-3" d="M99.09,13.55l0,0Z"/><path class="cls-3" d="M98.87,13.53h0Z"/><path class="cls-3" d="M99.61,13.05l-.05,0S99.6,13.05,99.61,13.05Z"/><path class="cls-3" d="M100.75,12.7l0,0v0Z"/><path class="cls-3" d="M99.71,12.72h0l0,0Z"/><path class="cls-3" d="M99.84,12.52l.15.13-.07-.07Z"/><path class="cls-3" d="M100.28,12.38v0Z"/><path class="cls-3" d="M99.57,12.84l0,0Z"/><path class="cls-3" d="M96.08,18.76l0,0Z"/><path class="cls-3" d="M95.36,18.54h0l-.06-.05Z"/><path class="cls-3" d="M98.58,13.59h0S98.58,13.58,98.58,13.59Z"/><path class="cls-3" d="M97.36,15.25c.11.06.1.13.23.19C97.54,15.41,97.44,15.28,97.36,15.25Z"/><path class="cls-3" d="M100.73,12.69h0S100.74,12.7,100.73,12.69Z"/><path class="cls-3" d="M97.59,15.44h0Z"/><path class="cls-3" d="M98.32,14l.05,0Z"/><path class="cls-3" d="M98.72,13.87h0Z"/><path class="cls-3" d="M98.35,14.32s0,0,0,0h0S98.33,14.31,98.35,14.32Z"/><path class="cls-3" d="M98.22,14.49h0Z"/><path class="cls-3" d="M96.43,18.23l-.1-.07C96.4,18.22,96.41,18.27,96.43,18.23Z"/><path class="cls-3" d="M100.69,12.65l0,0h0Z"/><path class="cls-3" d="M99.2,15h0Z"/><path class="cls-3" d="M97.36,17.06v0S97.37,17.08,97.36,17.06Z"/><path class="cls-3" d="M99.12,15.14l-.09,0,0,0Z"/><path class="cls-3" d="M96.32,18.16h0Z"/><path class="cls-3" d="M96.44,18.54s-.13-.13-.21-.2.12.07.2.12-.14-.17-.13-.18l.06,0c-.1-.11,0-.06-.08-.2l0,0-.2-.16s-.07-.09,0,0,0,0,.06.06l0,0c.14.1,0,.05.13.14s-.11-.18-.06-.16,0,.08.15.15h-.07c.22.15,0,0,.21.17.07,0,0-.09,0-.1L96.38,18c-.09-.16.36.23.22.05s-.24-.22-.13-.17l.14.13s-.2-.19-.07-.15,0,.07,0,.08-.07-.09-.06-.1l.13.1c0-.05-.05-.17,0-.23a.54.54,0,0,0,.12.1c0-.1.1-.09.22-.08l-.1-.11.08.06c.06,0-.07-.06-.11-.11s.08,0,.11.07-.13-.26,0-.2l0,0c.07,0-.21-.22-.08-.16l0,0c.1,0,0-.17.26-.07-.16-.14.12,0-.1-.19a1,1,0,0,0,.29.12s-.13-.14-.14-.17l.12.1L97.23,17l.15.11,0,0-.1-.06c0-.07.13,0,.19.06l-.06-.14a.44.44,0,0,1,.08.1c-.1-.13.13.1,0,0l-.09-.08c.08,0,.11,0,.1,0l.08.07c.05,0,0-.12.07-.16a.55.55,0,0,1-.19-.16l.13.1c-.07-.07-.06,0-.14-.12s.15.11.19.15l0-.06.1.09c-.07-.07.16.07,0-.06l0,0s0-.1,0-.14-.07-.08-.15-.17.17,0,.18,0-.09-.08-.14-.15c.1.08.12,0,.17.11s0-.07,0-.18l-.1-.07s.06,0,.1.05h0c-.1-.18.39.11.22-.11h0L98.06,16s.06.07.14.11c-.12-.19.09-.06,0-.19.32.21.07-.13.29,0l-.07-.05c-.06-.07.05,0,.07,0s-.07,0-.1-.08.26-.11.4-.16-.34-.31-.14-.22l.12.12c-.1-.2.12-.14.05-.32,0,0,.06.06.06.07s0-.05,0-.11.07.05.11.08-.09-.13,0-.07l0,0s0,0-.07-.11c.07,0,0-.09.07-.06-.11-.11.09,0-.07-.14.17.15.18.07.11,0s.07,0,.13.1,0-.06-.1-.14c.24.14-.11-.21.17,0a1,1,0,0,1-.07-.32c.17.14,0,.07.16.22,0-.11-.16-.26-.08-.27s.07.07.1.1.09-.08,0-.2l0,0s0,0,0-.06v0a1.86,1.86,0,0,1-.27-.28c.22.2.09,0,.36.26a.43.43,0,0,0-.1-.1s.06,0,.11.09-.11-.12-.09-.15l.09.09c-.06-.08-.13-.15-.08-.15s.05,0,0,0-.14-.23,0-.21.07,0,.21.15l0-.06-.08,0s-.07-.12,0-.1l0,.06V14l-.07,0c-.06-.08-.18-.15-.12-.14s0,0,.11,0h0s-.08-.1,0-.08l.19.16c-.11-.11,0-.07-.11-.19l.12.1-.09-.09a.36.36,0,0,1,.11.08s-.19-.14-.08-.11l0,0c.07,0,0-.12.06-.11s0,.06.14.15c0-.07-.1-.24,0-.25h0c-.2-.17.13.05,0-.05l.09.08c.06,0,0-.1,0-.2l0,0c.06,0,.06,0,.1,0s0-.05-.11-.11c.35.19-.07-.24.22-.09,0,0,0,.05,0,0v-.08a.81.81,0,0,0-.14-.09S100,13,100,13a.57.57,0,0,0,.2.15l-.08-.07c.18.11-.18-.15,0-.09l0,0s-.07-.09,0-.09,0,.05.12.12-.17-.2-.05-.13,0,0,0,.07.11.05.14.06h0l.08,0,0,0c-.25-.24,0-.09-.16-.26.14.17.09.08.21.18a.42.42,0,0,1,.11.07c-.08-.09.09,0,0-.1,0,0,0,0,.11.07s-.07,0-.12-.09.21.06.07-.12-.17-.21-.2-.29a.49.49,0,0,1,.13.12c.07,0,.07,0,0,0l.11.08s-.13-.12-.06-.09l.14.14s-.08-.12-.1-.16a.7.7,0,0,1,.13.13.34.34,0,0,0-.12-.19l0,0s.09.07.11.09-.05,0-.09,0v0c-.23-.17,0,.08,0,.09l-.15-.14.11.13a.61.61,0,0,1-.15-.13c-.09,0,0,.06-.06,0l0,0,0,.06s-.12-.09-.08-.08.08.15,0,.06h0c0,.09.11.1.23.25l-.31-.22.11.1s0,0-.07,0,.05,0,.12.11c-.12-.07,0,.1-.19-.05.08.08.09,0,.13.11-.21-.16,0,.05-.09,0s0-.06-.14-.12c.17.16-.07,0,0,0s0,.08.06.15-.12,0-.19,0l0,0c.14.12.09.12.1.17a.76.76,0,0,1-.15-.14v0a.23.23,0,0,1,.07.09l-.1-.09s.09.15,0,.12c.1.08.29.2.34.29a1.13,1.13,0,0,1-.16-.14s0,0,0,0l-.08-.09c-.05,0,.07.07.05.07l-.12-.09s0,0,0,0a.32.32,0,0,1-.14-.06s.1.08.11.1-.1-.07-.15-.09,0,0,.1.11-.06,0-.09-.06,0,.07.1.15h0c.08.13-.13,0-.11.11l0,0c0,.06,0,.07.05.16a.36.36,0,0,1-.13-.08s.06.08,0,.05-.06,0,0-.06-.12,0,0,.06c-.09-.09-.14-.08-.12,0l.08,0s0,0,0,0l-.12-.11c-.19-.08.2.3-.09.12.08.09.08,0,.18.12s-.24-.12-.24-.12.17.18.09.17a.72.72,0,0,1,.2.19.63.63,0,0,1-.24-.18h0a.17.17,0,0,0-.08-.08l0,0c-.06,0-.08,0-.14-.06a.15.15,0,0,0,.1.08c-.09,0,0,0-.11,0l.08.06c-.09,0,.07.09.07.13s-.16-.14-.13-.07a.45.45,0,0,1-.16-.13c.07.1-.1,0-.13,0l0,0s0,0,0,0l.1.07a.1.1,0,0,1-.07,0c.05.06.16.12.23.2s0,.07-.1,0c.07,0-.13-.1-.12-.14s0,0,0,0l0,0c-.14-.06.13.13.1.16s-.14-.1-.13-.08.12.09.16.14,0,.06,0,.06h0c.06.06,0,.06.06.1s0,0-.05-.06-.16-.06-.09,0-.13-.1-.17-.12-.12,0-.07,0a.41.41,0,0,1,.15.14l0-.1.11.14s0-.08,0-.07a.36.36,0,0,0,.12.11c-.15-.1.05.1-.06,0l-.23-.19c-.13-.05.07.15,0,.15l.05,0c.09.08,0,0,0,.08a1,1,0,0,0-.16-.11c.06,0,0,0,.12.16l-.12-.06c-.07,0,.19.22.13.23s-.14-.11-.18-.18,0,0,0,.05.08.11,0,.06.11.1.09.11l0,0s0,.06.13.12c-.27-.16-.06.11-.29,0a.25.25,0,0,1,0,.12l0,0c-.1,0,.2.2.1.17s-.05-.07-.11-.1c-.25-.2,0,.07-.16,0v0c-.1-.05.06.12,0,.13l0,0a.48.48,0,0,1,.14.25.73.73,0,0,0-.15-.13s.16.13.17.18a1.45,1.45,0,0,1-.23-.14v0c-.15-.1,0,0-.05,0l-.06-.05c0,.05.14.18.1.21l0,0c.13.14-.1-.05,0,.06L97.83,15a1.2,1.2,0,0,1,.12.22,1.7,1.7,0,0,1-.19-.26s0,.06,0,.12,0-.06,0,0,.15.19.12.21c-.29-.25-.13,0-.38-.16.07.14-.12.06-.15.13.25.17,0,0,.23.21,0,0,0,0,0,0l-.17-.08c-.08,0,0-.06-.1-.1s-.11-.07-.19-.1c.09.07.11.11.07.1l.13.07c.09.14-.23-.13-.13,0l-.06-.07c0,.06-.06.07.11.25a.41.41,0,0,1-.11-.09c-.07,0,.11.27,0,.22L97,15.6s.1.1,0,.07l-.06,0s.08.11,0,.09L97,15.64c-.11,0,.1.2.1.28a.51.51,0,0,0-.3-.15l0,0c-.07,0,.06.21.09.32-.21-.12-.17,0-.31,0a.55.55,0,0,1,.14.13s.09.13-.06,0h0c-.16-.12-.14-.06-.16,0l.2.17c-.34-.19,0,.22-.29,0,0,.05,0,.07.07.12l-.11-.09c-.06,0-.08,0-.09.08l-.07-.07s.29.29.28.32l-.17-.13s-.21,0-.09.13c0,0-.07-.06-.07-.07s-.17,0,.06.16c-.15-.12,0,0,0,.11l-.1-.09c.12.13.16.16.18.22S96.16,17,96.2,17s.09.1,0,.08L96.15,17s0,0,.08.12-.06,0-.16-.06c.06.05.13.13.09.12l-.07-.06c-.1,0,.08.16,0,.09l-.07,0s.05,0,.06,0a1.46,1.46,0,0,1-.26-.2c.06.08.2.24.13.23l0,0h0s0,0,0,0h0c-.08-.06-.07,0-.08,0s.08.09.18.15,0,0,0,0h0l0,0c0,.05.09.1,0,.06l.16.16c-.16-.11-.27-.15-.37-.22a.41.41,0,0,0,.16.3s-.07,0-.1-.06,0,0,0-.05,0,.08.11.2c-.08,0-.12-.12-.12-.07l0,0c-.28-.12.27.41-.08.24l.06,0c-.2,0,0,.27-.3.19-.06,0,0,.07.09.14L95.36,18l.11.14c.07.12-.34-.17-.19,0l.08.06s0,.09-.08,0,.08.07,0,0l-.06,0,.07.13c-.07,0-.24-.2-.29-.17a.84.84,0,0,0,.19.22s.05,0,.11.06l0,0a2.44,2.44,0,0,0,.51.38l-.09-.12.09.06v0c.09.06,0,0,0-.06l.11.07-.15-.17c.07.05.13.13.18.14s-.17-.12-.2-.18.16.11.1,0l.09.09c0-.06,0-.05-.09-.14.11.07,0-.07.18.08a.57.57,0,0,1-.11-.15c.19.19,0,0,.26.15-.17-.17,0-.13-.11-.24l0,0s.09,0,.13.06a1.72,1.72,0,0,1-.25-.27,3.22,3.22,0,0,1,.31.27c-.12-.1-.09-.13-.2-.21a1.07,1.07,0,0,1,.19.12c-.19-.16,0,0-.13-.15.11.05.18.14.14.07A.38.38,0,0,1,96.44,18.54Zm.14-.84h0v0Zm0,0,0,0-.07-.07A.34.34,0,0,0,96.62,17.65Zm-.84-.52s0,0,0,0a.05.05,0,0,0,0,0h0Z"/><path class="cls-3" d="M95.92,17.26h0l0,0,0,0Z"/><path class="cls-3" d="M99.63,13.06h0Z"/><polygon class="cls-3" points="97.37 17.16 97.34 17.14 97.36 17.16 97.37 17.16"/><path class="cls-3" d="M100.22,13.11l0,0Z"/><path class="cls-3" d="M100.34,13l.05,0Z"/><path class="cls-3" d="M100.47,13l0,0h0Z"/><path class="cls-3" d="M99.45,14.46h0S99.47,14.48,99.45,14.46Z"/><path class="cls-3" d="M99.54,13.84l0,.06S99.6,13.89,99.54,13.84Z"/><polygon class="cls-3" points="99.2 15.03 99.2 15.03 99.2 15.03 99.2 15.03"/><path class="cls-3" d="M99.56,13.91s0,0,0,0S99.55,13.89,99.56,13.91Z"/><path class="cls-3" d="M100.83,12.63h0Z"/><path class="cls-3" d="M100.82,12.61v0Z"/><path class="cls-3" d="M100.79,12.57l0,0S100.82,12.59,100.79,12.57Z"/><path class="cls-3" d="M100.68,12.7l0,0Z"/><path class="cls-3" d="M100.66,12.75s.1,0,.09,0l0,0C100.77,12.79,100.6,12.69,100.66,12.75Z"/><path class="cls-3" d="M100.06,12.5h.06s-.11-.07-.11-.09C99.85,12.34,100.11,12.47,100.06,12.5Z"/><path class="cls-3" d="M99.92,12.54s-.06,0-.08-.07A.15.15,0,0,0,99.92,12.54Z"/><path class="cls-3" d="M99.38,13.2l-.1-.08S99.32,13.15,99.38,13.2Z"/><polygon class="cls-3" points="99.78 13.74 99.86 13.78 99.77 13.7 99.78 13.74"/><polygon class="cls-3" points="99.02 13.24 99.01 13.22 99.03 13.27 99.02 13.24"/><path class="cls-3" d="M98.14,14.38l.12.1S98.12,14.33,98.14,14.38Z"/><path class="cls-3" d="M97.88,15c-.07,0-.12-.06-.06,0S97.89,15,97.88,15Z"/><polygon class="cls-3" points="96.5 16.23 96.47 16.19 96.48 16.24 96.5 16.23"/><path class="cls-3" d="M100.34,12.47s.1-.1.08-.09l-.13.11Z"/><path class="cls-3" d="M100.5,12.2a1.66,1.66,0,0,0-.28.24l.23-.17s0,.05-.07.09,0,0,.07,0,.07-.12,0-.06Z"/><path class="cls-3" d="M99.87,11.17v0Z"/><path class="cls-3" d="M99.43,10.58l0,0Z"/><path class="cls-3" d="M99.47,10.36h0S99.48,10.35,99.47,10.36Z"/><path class="cls-3" d="M99.87,11.17l0-.05S99.87,11.15,99.87,11.17Z"/><path class="cls-3" d="M100.1,12.36l0,0h0Z"/><path class="cls-3" d="M100.19,11.31h0l.05,0Z"/><path class="cls-3" d="M100.38,11.47l-.15.13.08-.06Z"/><path class="cls-3" d="M100.47,11.93h0Z"/><path class="cls-3" d="M100.09,11.16l0,0Z"/><path class="cls-3" d="M94.53,6.88l0,0Z"/><path class="cls-3" d="M94.83,6.19h0l.06-.05Z"/><path class="cls-3" d="M99.45,10.07h0S99.46,10.07,99.45,10.07Z"/><path class="cls-3" d="M97.92,8.62c-.07.1-.14.08-.22.21C97.73,8.79,97.88,8.7,97.92,8.62Z"/><path class="cls-3" d="M100.11,12.34h0Z"/><path class="cls-3" d="M97.7,8.83h0Z"/><path class="cls-3" d="M99,9.75l0,0Z"/><path class="cls-3" d="M99.15,10.17v0Z"/><path class="cls-3" d="M98.73,9.74s0,0,0,0h0S98.75,9.72,98.73,9.74Z"/><path class="cls-3" d="M98.59,9.58l0,0h0Z"/><path class="cls-3" d="M95,7.3l.08-.09C95,7.27,95,7.28,95,7.3Z"/><path class="cls-3" d="M100.16,12.31l0,0h0Z"/><path class="cls-3" d="M97.93,10.5v0A0,0,0,0,0,97.93,10.5Z"/><path class="cls-3" d="M96.09,8.39h0Z"/><path class="cls-3" d="M97.84,10.4l.06-.08,0,0Z"/><path class="cls-3" d="M95.11,7.2h0Z"/><path class="cls-3" d="M94.72,7.27s.14-.11.22-.18-.09.11-.15.18.19-.12.19-.1l-.06.06c.12-.08.06,0,.21-.06l0,0L95.29,7s.1-.06,0,0,0,0-.07,0l0,0c-.12.13-.06,0-.15.12.06,0,.19-.09.17,0s-.08,0-.17.13l0-.07c-.18.2,0,0-.19.19,0,.07.1,0,.09,0s.1-.1.17-.16-.27.33-.08.21.25-.21.19-.11l-.15.12s.22-.17.16,0-.07,0-.08,0,.09-.06.11,0l-.12.12c.05,0,.18,0,.24,0a.54.54,0,0,0-.11.11c.11,0,.08.12.05.23l.12-.08a.22.22,0,0,1-.07.07c0,.06.07-.06.12-.09s0,.07-.09.1c.12-.05.28-.09.2,0l0,0c0,.07.25-.18.17-.06h0c0,.1.16.07,0,.27.16-.14,0,.12.2-.08-.07.13-.12.16-.15.27s.15-.11.19-.12L96,8.36l.14-.09L96,8.4h0a.31.31,0,0,1,.07-.09c.07,0,0,.13-.08.18l.14,0a.43.43,0,0,1-.1.07c.14-.08-.11.12,0,0l.09-.08c-.06.08,0,.11,0,.1l-.08.07c0,.06.11,0,.15.09a.54.54,0,0,1,.18-.17l-.11.12c.08-.06,0-.06.14-.12s-.12.14-.17.17l.06,0-.1.09c.08-.06-.09.15.05,0l0,0s.1,0,.14.05.09-.06.19-.13-.06.16,0,.19.09-.08.16-.12c-.09.09-.05.11-.13.16s.06,0,.18,0a.46.46,0,0,1,.08-.09s0,.06-.07.1h0c.19-.08-.15.38.08.24h0L97,9.23s-.08.05-.12.12c.2-.1,0,.1.19,0-.24.29.12.09,0,.3l.06-.06c.07,0,0,0,0,.07s0-.07.09-.09.08.27.11.42.35-.3.24-.11l-.13.1c.21-.07.13.14.31.09,0,0-.07.06-.07,0s0,.06.12,0-.06.06-.09.1.14-.07.07,0l0,0c.05,0,0,.05.12-.05,0,.07.09,0,0,.08.12-.09,0,.09.15-.05-.17.15-.09.17,0,.11s0,.06-.11.12.07,0,.15-.08c-.16.22.22-.08,0,.17a1,1,0,0,1,.33,0c-.16.15-.07,0-.24.13.11,0,.28-.13.28,0s-.08.06-.11.08.07.1.2.06l-.05,0s0,0,.07,0h0a1.83,1.83,0,0,1,.31-.24c-.23.19,0,.09-.3.33a.42.42,0,0,0,.11-.08s0,.05-.1.1.14-.1.16-.07l-.1.08c.08-.05.16-.11.16-.06s0,0-.05,0,.25-.11.22,0,0,.06-.17.19l.06,0,.06-.07S99,11,99,11l-.07,0H99L99,11c.09,0,.17-.17.16-.1s0,0-.05.11h0c.05,0,.11-.06.09,0l-.18.17c.12-.1.07,0,.21-.09l-.12.11.1-.08a.35.35,0,0,1-.09.1s.16-.17.12-.07l0,0c0,.07.12,0,.1.08s-.06,0-.16.13c.07,0,.25-.07.25,0v0c.2-.18-.07.12,0,.06l-.09.08c0,.06.1,0,.2,0l-.05,0c0,.06,0,.07,0,.11s.06,0,.12-.1c-.23.32.25,0,.06.23l-.05,0h.09a.8.8,0,0,0,.1-.12c.05,0,.1-.07.11-.06a.56.56,0,0,0-.17.18l.08-.08c-.13.16.17-.16.1,0l0,0s.1-.06.1,0-.06,0-.14.11.21-.14.13,0l-.08,0c-.1.13-.07.1-.07.13h0l0,.08,0,0c.27-.22.09,0,.28-.13-.18.12-.09.08-.21.18a.41.41,0,0,1-.08.11c.1-.07,0,.09.1,0,0,0,0,0-.08.1s.06-.06.1-.1-.09.2.12.08.22-.14.31-.16a.48.48,0,0,1-.14.11c0,.07,0,.07,0,0l-.09.1s.14-.11.1,0l-.15.12.17-.08a.69.69,0,0,1-.15.11.34.34,0,0,0,.2-.1l0,0s-.08.08-.1.1,0-.05,0-.09h0c.2-.21-.08,0-.09,0l.16-.13-.15.1a.6.6,0,0,1,.15-.14c.06-.09-.07,0,0-.06l0,0-.06,0s.1-.1.09-.07-.16.06-.05-.06h0c-.09,0-.11.1-.27.2l.25-.28-.11.1s0,0,0-.06,0,0-.13.11c.08-.12-.1,0,.07-.18-.09.07,0,.08-.13.12.18-.19-.06,0,0-.09s.07,0,.14-.12c-.18.15,0-.07,0-.05s-.09,0-.15,0,0-.12.05-.18l0,0c-.14.12-.14.07-.18.08a.75.75,0,0,1,.16-.13l0,0a.23.23,0,0,1-.1.06l.1-.09s-.16.07-.12,0c-.09.09-.24.27-.33.3a1.11,1.11,0,0,1,.16-.14s-.05,0,0,0l.1-.07s-.08.06-.08,0l.1-.11s0,0,0,0a.32.32,0,0,1,.08-.13.41.41,0,0,1-.11.09s.08-.09.1-.14,0,0-.12.08,0-.06.07-.09-.06,0-.17.08h0c-.14.06,0-.14-.09-.13l0,0c-.06,0-.07,0-.16,0s.05-.08.1-.12-.08,0,0,0,0-.06.06,0,.06-.11-.06,0c.1-.08.1-.13.06-.11l-.05.08s0,0,0,0l.13-.11c.1-.18-.33.16-.11-.11-.1.07,0,.08-.14.16s.15-.22.14-.23-.2.14-.18.07a.7.7,0,0,1-.21.17s.16-.2.2-.22,0,0,0,0a.16.16,0,0,0,.09-.07l0,0c0-.05,0-.08.08-.14a.15.15,0,0,0-.09.09c0-.09,0,0,0-.11l-.07.07c0-.09-.1.06-.14.05s.16-.14.08-.12a.44.44,0,0,1,.15-.14c-.11.05,0-.1,0-.13l0,0s0,0,0,0l-.08.09a.1.1,0,0,1,0-.06c-.06,0-.14.14-.23.2s-.08,0,0-.1c0,.07.11-.11.16-.1s0,0,0,0l0,0c.07-.13-.14.11-.17.07s.11-.12.1-.12-.1.11-.16.14-.06,0-.06,0v0c-.07.06-.07,0-.1,0s0,0,.06,0,.08-.15,0-.1.12-.12.14-.15.06-.11,0-.07A.41.41,0,0,1,99,10l.1,0-.15.09s.08,0,.07,0a.35.35,0,0,0-.13.11c.11-.14-.11,0,0-.07l.21-.2c.07-.12-.16.05-.15,0l0,0c-.09.08,0,0-.08,0A1,1,0,0,0,99,9.79c-.05.05,0,0-.17.1l.08-.11c0-.07-.24.16-.24.1s.12-.13.2-.16,0,0-.05,0-.12.06-.06,0-.11.1-.12.08l0,0s-.07,0-.13.11c.19-.24-.1-.07.06-.28a.26.26,0,0,1-.12,0l0,0c0-.09-.22.18-.18.08s.08,0,.11-.09c.23-.23-.07,0,0-.16h0c.06-.09-.13,0-.14,0l0,0a.47.47,0,0,1-.27.1.72.72,0,0,0,.15-.13s-.15.15-.19.15a1.42,1.42,0,0,1,.17-.21l0,0c.12-.13,0,0,0-.06l.06-.05c-.05,0-.19.12-.22.07l0,0c-.16.11.06-.09-.06,0l.14-.14a1.18,1.18,0,0,1-.23.09,1.68,1.68,0,0,1,.28-.16s-.05,0-.13,0,.06,0,0,0-.2.12-.22.1c.28-.26,0-.13.2-.36-.15.05,0-.13-.11-.17-.2.22,0,0-.24.2,0,0,0,0,0,0l.1-.16c.06-.07.06,0,.11-.08s.08-.1.12-.17c-.08.08-.12.1-.11.05l-.08.12c-.15.07.15-.21,0-.14l.08-.05c-.06,0-.07-.07-.26.08a.4.4,0,0,1,.1-.1c0-.07-.29.08-.21-.06l.06,0s-.12.08-.07,0l.06-.06s-.12.07-.1,0l.07,0c0-.11-.21.07-.29.07A.5.5,0,0,0,97.46,8l0,0c0-.07-.22,0-.33,0,.14-.2,0-.17,0-.31a.53.53,0,0,1-.15.12s-.14.07,0-.06h0c.13-.15.07-.13.06-.15l-.19.18c.23-.31-.22,0,0-.29-.06,0-.07,0-.13.05l.1-.1c0-.06,0-.09-.07-.1l.08-.06s-.32.25-.35.24l.15-.15s.06-.2-.12-.11l.08-.06s0-.17-.17,0c.14-.13,0-.05-.11,0l.1-.09c-.15.11-.18.14-.24.15s.08-.08.06,0-.11.08-.08,0l.07-.05s0,0-.13.07,0-.06.08-.15-.14.11-.13.07l.07-.06c0-.1-.17.06-.09-.06L96.14,7s0,.06,0,.06a1.43,1.43,0,0,1,.23-.23c-.09,0-.27.16-.24.1l0,0h0s0,0,0,0,0,0,0,0,0-.06,0-.08-.1.07-.17.16h0l0,0C96,7,96,7,96,6.94l-.18.14c.13-.15.18-.25.26-.34a.41.41,0,0,0-.32.12s0-.06.07-.1l.06,0c-.07,0-.07,0-.21.09,0-.08.14-.1.08-.12l0,0c.15-.27-.44.22-.23-.11l0,.05c0-.2-.27-.06-.16-.32,0-.06-.07,0-.15.07l.1-.11-.15.1c-.12.05.21-.31,0-.19l-.07.08s-.09,0,0-.09-.08.07,0,0l.06-.06L95,6.18c0-.07.23-.21.2-.27a.82.82,0,0,0-.24.16s0,.05-.08.11h0a2.39,2.39,0,0,0-.44.46l.13-.07-.07.09,0,0c-.07.09,0,0,.06,0l-.08.1.18-.13c-.06.07-.14.11-.16.17s.14-.15.2-.18-.13.14-.05.09l-.1.08c.06,0,.05,0,.15-.07-.08.1.06,0-.1.17a.56.56,0,0,1,.16-.09c-.21.16,0,.05-.18.24.19-.15.13,0,.25-.08l0,0s0,.08-.07.12a1.68,1.68,0,0,1,.3-.21c-.12.15-.18.15-.3.28.11-.11.15-.08.24-.17a1,1,0,0,1-.14.17c.18-.17,0,0,.16-.11-.07.1-.16.16-.09.14A.37.37,0,0,1,94.72,7.27Zm.83.25h0Zm0,0,0,0,.07-.06A.33.33,0,0,0,95.59,7.57Zm.61-.77s0,0,0,0h0Z"/><path class="cls-3" d="M96.05,6.91h0l0,0,0,0Z"/><path class="cls-3" d="M99.86,11.19h0v0Z"/><polygon class="cls-3" points="96 8.38 96.02 8.36 95.99 8.38 96 8.38"/><path class="cls-3" d="M99.75,11.78l0,0Z"/><path class="cls-3" d="M99.83,11.91l0,0Z"/><path class="cls-3" d="M99.86,12l0,0h0Z"/><path class="cls-3" d="M98.47,10.83h0Z"/><path class="cls-3" d="M99.09,11,99,11S99,11,99.09,11Z"/><polygon class="cls-3" points="97.93 10.5 97.93 10.5 97.93 10.5 97.93 10.5"/><path class="cls-3" d="M99,11s0,0,0,0S99,11,99,11Z"/><path class="cls-3" d="M100.16,12.44h0l0,0Z"/><path class="cls-3" d="M100.18,12.44h0Z"/><path class="cls-3" d="M100.23,12.42l0,0S100.2,12.44,100.23,12.42Z"/><path class="cls-3" d="M100.1,12.29l0,0Z"/><path class="cls-3" d="M100.06,12.27s-.06.1,0,.08l0,0C100,12.37,100.13,12.21,100.06,12.27Z"/><path class="cls-3" d="M100.38,11.69v.06s.08-.1.1-.1C100.56,11.5,100.4,11.74,100.38,11.69Z"/><path class="cls-3" d="M100.35,11.55s.06-.05.08-.08A.14.14,0,0,0,100.35,11.55Z"/><path class="cls-3" d="M99.75,10.92l.09-.09S99.81,10.86,99.75,10.92Z"/><polygon class="cls-3" points="99.16 11.25 99.11 11.32 99.2 11.24 99.16 11.25"/><polygon class="cls-3" points="99.75 10.55 99.77 10.55 99.72 10.56 99.75 10.55"/><path class="cls-3" d="M98.7,9.53l-.11.11S98.75,9.51,98.7,9.53Z"/><path class="cls-3" d="M98.15,9.18c.05-.06.08-.11,0-.06S98.13,9.19,98.15,9.18Z"/><polygon class="cls-3" points="97.02 7.63 97.07 7.6 97.02 7.62 97.02 7.63"/></g></g></g></svg>