<svg xmlns="http://www.w3.org/2000/svg" viewBox="0 0 30.01 42.35"><defs><style>.cls-1{opacity:0.14;}.cls-2{fill:#ffe37f;}.cls-3{fill:#ffc13f;}.cls-4{fill:#f0f0f0;}</style></defs><title>balança_Ativo 12</title><g id="Camada_2" data-name="Camada 2"><g id="tela_2" data-name="tela 2"><g class="cls-1"><path d="M25.6,16.59a15,15,0,0,0-21.19,0H0V27c0,8.09,6.61,15.14,14.7,15.3A15,15,0,0,0,30,27.26V16.59Z"/></g><circle class="cls-2" cx="15.01" cy="15.01" r="15.01"/><circle class="cls-3" cx="15.01" cy="18.56" r="15.01"/><polygon class="cls-4" points="9.48 25.16 13.94 20.69 9.48 16.23 9.48 25.16"/><path class="cls-4" d="M20.27,14.36a.9.9,0,0,0-.42-.09c-.72,0-2.33-.11-2.33-.68V10.73s2.3.06,2.3-.91c0-1.21-1.71-1.1-2.37-1.1H12.53c-.66,0-2.4-.11-2.4,1.1,0,1,2.27.91,2.27.91v2.86c0,.56-1.57.68-2.29.68a.87.87,0,0,0-.39.08L15,19.63Z"/><polygon class="cls-4" points="9.48 27.28 9.48 28.39 20.54 28.39 20.54 27.29 15 21.75 9.48 27.28"/><polygon class="cls-4" points="20.54 16.22 16.07 20.69 20.54 25.16 20.54 16.22"/><polygon class="cls-4" points="22.7 27.33 20.54 25.16 20.54 27.29 21.64 28.39 22.7 27.33"/><path class="cls-4" d="M9.72,14.35,8.38,13,7.31,14.06l2.16,2.16V14.69A.41.41,0,0,1,9.72,14.35Z"/><polygon class="cls-4" points="7.31 27.32 8.37 28.39 9.48 27.28 9.48 25.16 7.31 27.32"/><path class="cls-4" d="M20.54,14.69v1.53l2.16-2.16L21.64,13l-1.36,1.36A.47.47,0,0,1,20.54,14.69Z"/></g></g></svg>