<svg xmlns="http://www.w3.org/2000/svg" viewBox="0 0 84 90"><defs><style>.cls-1{opacity:0.14;}.cls-2{fill:#ffe37f;}.cls-3{fill:#ffc13f;}.cls-4{fill:#fff;stroke:#fff;stroke-miterlimit:10;stroke-width:4px;}</style></defs><title>balança_Ativo 6</title><g id="Camada_2" data-name="Camada 2"><g id="tela_1" data-name="tela 1"><g class="cls-1"><rect y="30" width="84" height="60" rx="28.72" ry="28.72"/></g><rect class="cls-2" width="84" height="60" rx="28.72" ry="28.72"/><rect class="cls-3" y="9" width="84" height="60" rx="28.72" ry="28.72"/><path class="cls-4" d="M53.38,39.81h0a1.59,1.59,0,0,1-2.27,0L35.42,23.75a1.68,1.68,0,0,1,0-2.33h0a1.59,1.59,0,0,1,2.27,0L53.38,37.48A1.68,1.68,0,0,1,53.38,39.81Z"/><path class="cls-4" d="M53.38,37.53h0a1.68,1.68,0,0,1,0,2.33L37.69,55.92a1.59,1.59,0,0,1-2.27,0h0a1.68,1.68,0,0,1,0-2.33L51.11,37.53A1.59,1.59,0,0,1,53.38,37.53Z"/></g></g></svg>