<svg xmlns="http://www.w3.org/2000/svg" viewBox="0 0 268.85 164.28"><defs><style>.cls-1{opacity:0.57;}.cls-2,.cls-3{fill:#fff;}.cls-3{font-size:19px;font-family:Kalam-Light, Kalam;}.cls-4{opacity:0.14;}.cls-5{fill:#ffe37f;}.cls-6{fill:#ffc13f;}</style></defs><title>balança_Ativo 17</title><g id="Camada_2" data-name="Camada 2"><g id="tela_2" data-name="tela 2"><g class="cls-1"><path class="cls-2" d="M96.4,11.53a.08.08,0,0,0-.1-.1l0,.18Z"/><path class="cls-2" d="M95.7,11.36c-.1.1-.2.27-.1.4.08-.18.12-.12.2-.33.09,0,.18,0,.17.08s.16,0,.19-.11a.34.34,0,0,0-.45.06S95.69,11.39,95.7,11.36Z"/><path class="cls-2" d="M86.44,13.88h0Z"/><path class="cls-2" d="M81,16.33s0,0,0-.06S81,16.32,81,16.33Z"/><path class="cls-2" d="M80,16.65l.06,0S80,16.63,80,16.65Z"/><path class="cls-2" d="M86.44,13.88h-.17C86.28,13.95,86.36,13.9,86.44,13.88Z"/><path class="cls-2" d="M94.49,12a.22.22,0,0,0,.07-.06l-.07,0Z"/><path class="cls-2" d="M88.86,12.82l0,0a.41.41,0,0,0,0-.08Z"/><path class="cls-2" d="M90.77,12.17s0,.15,0,.21a.15.15,0,0,1,.07-.12A.26.26,0,0,0,90.77,12.17Z"/><path class="cls-2" d="M93.93,11.57l.05,0Z"/><path class="cls-2" d="M87.48,13.29l0,0Z"/><path class="cls-2" d="M48.92,52.44h0S48.91,52.45,48.92,52.44Z"/><polygon class="cls-2" points="47.24 54.19 47.25 54.16 47.18 54.12 47.24 54.19"/><path class="cls-2" d="M78.3,17.43h0S78.32,17.41,78.3,17.43Z"/><path class="cls-2" d="M64.88,28.12c.22-.05-.11.34.2.23C65,28.33,65.11,28,64.88,28.12Z"/><path class="cls-2" d="M94.44,12l-.08,0Z"/><path class="cls-2" d="M65.08,28.35h0Z"/><path class="cls-2" d="M74.71,19.84l.07,0Z"/><path class="cls-2" d="M77.5,18.24l-.08,0Z"/><path class="cls-2" d="M73.47,21s-.06,0-.1.06h0S73.41,21,73.47,21Z"/><polygon class="cls-2" points="72.09 22.01 72.13 22.02 72.17 21.98 72.09 22.01"/><path class="cls-2" d="M51.37,47.85a.41.41,0,0,1-.15,0C51.32,47.88,51.23,48.12,51.37,47.85Z"/><path class="cls-2" d="M94.48,11.95a.07.07,0,0,1,0,.07l.05,0A.06.06,0,0,0,94.48,11.95Z"/><path class="cls-2" d="M74.06,21.9l-.23.15Z"/><path class="cls-2" d="M58.15,37.62l0,.06A.07.07,0,0,0,58.15,37.62Z"/><path class="cls-2" d="M73.21,22.55a.39.39,0,0,0-.18,0,.12.12,0,0,0,0,0Z"/><path class="cls-2" d="M51.22,47.85h0Z"/><path class="cls-2" d="M50.62,49.58c.13-.22-.1-.19-.16-.29.11-.3.19-.06.32-.1s0-.4.05-.53.06,0,.07,0c0-.25.29-.53.26-.83h.06a.52.52,0,0,1-.24-.1c.06-.1,0-.25.14-.22,0,.06,0,.09,0,.14l0-.13c.21,0,0,.17.08.24.07-.23.09-.55.22-.68.17.05-.17.4.09.26l-.2.21c.34-.05-.1.14.24.11.23-.29.14-.4.36-.69,0-.12-.13,0-.17-.17.12-.54.58-.13.59-.58,0-.14-.21-.29,0-.46l.11.18c.2-.3-.13-.32.18-.57,0,.1-.09.27,0,.24.26-.13,0-.2.1-.36l.16.06c.17-.34.3-.76.5-1.13,0,0,0,.14.13.08a4.61,4.61,0,0,1,1-1.32V42.7s.1,0,.1,0c.16-.14-.07-.06-.07-.17s.15-.08.15,0a2.3,2.3,0,0,1,.68-1.21v.08c.22-.2-.06-.44.21-.58v.06c.42-.48.7-1.13,1.16-1.39-.12-.2.45-.45.23-.65.33-.2.31-.09.69-.44.09-.1,0-.27,0-.43l.13.09v-.28h.22l.06-.15s-.14.06-.17,0c.09-.24.45-.41.52-.36l.25-.54s0,.14,0,.22c.07-.34.16.06.22-.26-.05,0-.06-.07-.08-.1a1.2,1.2,0,0,0,.47-.52l.06.1c.28-.32.53-.73.83-1.11-.15.1-.27,0-.19-.17l.16.06c0-.13-.14.08-.12-.15s.22,0,.2.14l.09-.21s0,.08.07.13c0-.13.36-.19.31-.4l0,0c.3-.37.41-.57.66-.87-.1-.1,0-.19,0-.36a4.83,4.83,0,0,0,.73-.63c.11-.23,0-.13,0-.27.11.07.33-.2.28,0a5.89,5.89,0,0,0,.62-.87c-.08,0-.14,0-.15,0s.19-.12.22-.07v0c.26-.57,1.19-.76,1.33-1.27v0l.24-.45c.17-.15,0,.16.15.1.21-.53.6-.57.8-1,.5,0,.84-.85,1.33-1l-.08,0c0-.14.14-.06.21-.11s-.15,0-.13-.06a13.46,13.46,0,0,1,2.4-1.91c.29-.23-.15-.49.34-.64v.21c.44-.64,1.18-1,1.64-1.58,0,.06,0,.1,0,.14.2,0,.45-.36.39-.44.1-.06.08.05.16,0s.21-.36.35-.32,0,.06,0,.08.38-.27.22-.32c.26-.11.38-.37.61-.44,0-.21.42-.23.33-.43.12.19.49-.15.57-.34,0,.09.16,0,.16.08.16-.12.28-.26.19-.33.46,0,.48-.6.85-.44A11.91,11.91,0,0,1,76.35,20c.11.19-.48.34-.33.53.36-.36.51-.67,1-.9.13,0,0,.12,0,.18.37-.35.83-.51,1.14-.86,0,0,0,.06,0,.1s.19-.08.13-.16l-.06.07c-.2-.05.14-.45.11-.52,0,.33.42-.16.41.28,0,0,.08-.12,0-.18s.13,0,.09.11c.24-.21.09-.25.34-.39,0,0,0,.09,0,.15a.67.67,0,0,1,.38-.4s0,.05,0,.09c.35-.22.48-.59.93-.72,0,.25.17,0,.28.14l.19-.17-.13,0c.19-.1.29-.31.49-.34l-.1.14.34-.22-.23,0c.15-.19-.13-.2.15-.29,0,0,.19-.1.34-.06h0a.44.44,0,0,1,.3-.24c.06,0,.06.2.11.22,0-.19.43-.26.48-.47a.16.16,0,0,0,0,.15l0-.15c.11,0,.13,0,.15.08.28-.11-.19-.17.18-.24,0,0,0,0,0,.08.35-.11.59-.38.91-.47.17.13-.24.17-.07.26A8,8,0,0,1,85,15l-.09,0c0-.27.37,0,.53-.23,0,0,0,.17,0,.13a4.92,4.92,0,0,0,1-.57l0,.09a5.14,5.14,0,0,0,.66-.2c0-.09.14-.12,0-.18.71.12,1-.61,1.66-.5-.06,0-.13.11-.08.09l.42-.22c-.07-.1-.08,0-.2-.1a.45.45,0,0,1,.25-.22c-.17.14.06.17.17.21s0-.08,0-.11c.3.12,0-.23.33-.21v.06c.11-.07.19-.18.33-.21s-.11.1-.08.21c.18-.07.28-.36.48-.28-.07.06-.17.1-.24.16a.45.45,0,0,0,.37,0h0l.32,0-.09,0c.12-.41.44-.2.68-.51-.24.29,0,.13,0,.29s.22,0,.2.08c.11-.16.27,0,.42-.21,0,0,.16,0,.16.09.18-.09-.07-.07-.07-.13.24-.25.73,0,1.09-.32s.36-.37.69-.52c.13,0-.05.19-.05.19a.7.7,0,0,0,.5-.11s0,.08.08.12.05-.19.25-.17a.68.68,0,0,1-.1.22c.15-.08.3-.21.46-.29.06.07-.08.15-.12.22.18-.08.48-.18.51-.33l-.13,0c.07,0,.06.11,0,.14a.16.16,0,0,1-.27,0l.11-.06c-.19-.25-.48.16-.72.2l.06-.23-.21.23c-.07,0-.13-.15,0-.2-.2-.06-.14.11-.32,0,0,0,0,0,0,0l-.16.1c0-.05-.06-.14,0-.13-.34,0-.46.28-.61.15l0,0c-.41.18,0,.16-.28.41l-.31-.31v.16s-.14,0-.13,0c-.14.14,0,.06,0,.18-.25-.08-.56.23-.67,0,0,.13.22,0,0,.17-.14-.23-.25.12-.47.06,0-.15.22-.13,0-.19-.05.25-.39.06-.54.15,0,.17-.33.18-.58.33,0-.06-.54.07-.81.09v0c0,.19-.26.24-.43.34a.2.2,0,0,1,.08-.24l-.18.06a.31.31,0,0,1-.17.18v-.15c-.23.09-.41.32-.74.35,0,.13.36.25.07.44,0-.06-.09-.17,0-.22s-.08.09-.14.08l.09-.16c-.15,0,0,.12-.15.15s-.1,0-.12-.12.11,0,.14,0a.57.57,0,0,1-.37,0,.11.11,0,0,1,0,.17c-.23.09-.12-.08-.27-.08s-.2.08-.15.22-.1,0-.15-.06-.55.24-.36.33h0c-.33.3-.84.24-1.2.47l0,0c-.2.15-.49.26-.61.42s-.19,0-.19-.08a.66.66,0,0,1-.44.21c.14-.16-.09,0,.15-.14-.24.06-.33,0-.51.24,0-.15-.24-.07-.33,0h.19a1.51,1.51,0,0,1-.33.16V15c-.54,0-.67.71-1.16.58-.07.16.28,0,.24.13-.22.08-.54,0-.61,0-.33.06-.15.36-.47.46.07,0,.17.15,0,.32s-.37-.08-.26-.2.08,0,.09,0,.13-.12,0-.14v.07c-.13,0-.41.16-.39,0-.13.13,0,.12.11.09-.3.07-.41.22-.71.31.06,0,.13,0,.09.07-.43.15-.12.19-.38.36-.19,0-.05-.22-.28,0-.19,0-.11-.12-.07-.2-.19.24-.49.2-.64.26l.1-.12a.7.7,0,0,1-.19.14l.13.06c-.09,0-.15.06-.17,0,0,.11.16.14.06.32-.13,0-.27.23-.38.12.34-.14-.12-.12.14-.29a.41.41,0,0,1-.19.11s0,0,0-.05c-.37.06,0,.23-.36.41,0-.1-.16-.1-.2-.06.13-.07.14.09.06.22-.24.06-.19.18-.29.23l.13,0c0,.1-.1.15-.22.26,0-.05.1-.12,0-.11-.07.23-.43.08-.58.31-.13,0-.1-.13-.21-.11-.17.25-.32.06-.52.3.14.05.13,0,0,.23l.36-.33-.17.31c.12-.08.22-.23.3-.26-.07.16-.07.13,0,.17-.26,0-.27.3-.53.32L76,19c-.37.08-.44.46-.84.66l.15,0c0,.13-.22.17-.31.3,0-.09-.14-.07-.23-.08s-.27.18-.19.37h-.24c-.33.17-.18.47-.48.64,0-.15-.15-.11,0-.31-.1.07-.19.11-.15.17s-.19.29-.33.28,0,.16-.07.23,0,0,0,0-.12.18,0,.2c-.47,0-.78.62-1.19.6-.18.18-.41.39-.58.54,0,0,0,0,0-.06-.31.12,0,.34-.32.49-.24,0,.09-.19,0-.16-.24-.22-.31.31-.62.32l0-.05c-.21,0-.27.38-.52.56,0,0,0,0,0,0a2.11,2.11,0,0,1-.52.77c0-.15.06-.14-.07-.2-.09.1.16.13,0,.33-.11,0-.29.08-.4,0l.18-.17c-.21-.05-.24.22-.35.28l0-.07c-.27.27-.14.42-.45.68l.07,0c0,.29-.21,0-.28.3l-.18-.1a5.07,5.07,0,0,1-.42.69,2.36,2.36,0,0,1,.27-.66c-.11.1-.36.34-.35.46,0-.05.05-.14.12-.15a1,1,0,0,1-.37.64c-.23-.32-.61.45-1,.38-.27.46-.78.66-1.19,1.1.36.06-.12.13.12.32-.08.11-.12.15-.15.14l-.42.17c-.13,0,0-.14,0-.18-.23.2-.18,0-.38.09.11,0,0,.19-.11.28l.27-.08c-.18.42-.44.09-.63.51l0-.16c-.11.2-.57.58-.54.91-.05,0-.15,0-.1-.1-.38.36-.6,1-1,1.24l0-.08c-.05.09,0,.22-.15.26s0-.08-.06,0-.08.28-.2.35v-.14c-.42.31-.37.73-.61,1.09-.17-.15-.48.11-.64.24l0,0A6,6,0,0,0,59.68,34c-.4.11-.82.84-1.27,1.18.08,0,.13.12.08.21s-.1.38-.25.24l0,0c-.22,0-.34.2-.47.36l.19.19c-.64.2-.76,1.21-1.21,1.24,0,.15-.12.28-.15.42l-.11-.09a4.61,4.61,0,0,0-.61.79l0-.13c-.16.2.14.5,0,.69L55.7,39c-.25.36-.66.62-.75,1.09a.11.11,0,0,1,0-.13c-.12.17-.58.58-.3.68-.16-.1-.27.37-.34.61l-.09-.11a.73.73,0,0,1,0,.56c-.05,0-.13,0,0-.07-.18.14,0,.22-.2.4l0-.13c-.14.18-.09.2-.07.36s-.27.34-.39.3a.27.27,0,0,1,0,.32s0-.07,0-.1c-.29.27-.17.57-.43.71a.1.1,0,0,0-.09,0,3.6,3.6,0,0,1,.3-.43c-.11-.07-.26.12-.3-.14,0,.22,0,.62-.21.79h-.05v0a.23.23,0,0,0-.06.14.75.75,0,0,0-.14.15c-.11,0-.2.21-.27.31.12.07,0,.19.2.12,0,0,0,0,0-.1a.17.17,0,0,0,0-.05h0l.16-.26a.27.27,0,0,1-.13.31c0,.1.08.21.1.26-.25,0-.51.26-.64.23-.13.36-.42.78-.31,1.11,0,.11-.13.06-.18.08s.05-.13,0-.17c-.05.21-.3.55-.17.69-.21.19-.07-.22-.23.12l0-.07c-.62.48-.2,1.25-.91,1.75,0,0,.07-.06.1-.05-.6.71-.79,1.71-1.44,2.38-.17.2-.08.28-.07.46l-.16,0,0,.32c-.06.39-.63.41-.64.95H48c-.1.14-.2.51-.29.43s.07.1,0,.13l-.07,0-.07.44c-.2.27-.26-.19-.49.23-.05.17,0,.56.05.52s.13-.14.2-.11l0,.16c.2.13.35.35.68.07v-.31l.14,0-.1.21c.15-.07.11-.19.09-.3a.2.2,0,0,0,.16,0l-.08-.34c.1,0,.11.19.23.05,0-.16-.24,0-.2-.2s.21,0,.2-.18c.06,0,.08.05.08.12,0-.16.14-.34.06-.46.18-.06.19-.43.38-.31a.75.75,0,0,1,0-.41c.13.33.23-.41.46-.23-.13-.26.2-.59.23-.92,0,0,0,.07,0,.09.1-.14.19-.15.28-.23-.16-.11-.07-.37-.11-.55.27-.09.14.22.33.25-.14-.07,0-.4-.12-.4.18-.08.12-.09.3-.09-.2-.14,0-.15,0-.34.22-.14.23.06.29-.2C50.66,49.34,50.62,49.58,50.62,49.58Zm2.74-5.41h0l-.06.11Zm.27-.43-.12.18c-.05,0-.08-.05-.05-.1S53.56,43.77,53.64,43.73Zm-1.41.39c0-.08.07-.09.1-.08l-.06.13v0A.19.19,0,0,1,52.23,44.12Z"/><path class="cls-2" d="M52.31,44.34a.15.15,0,0,1,0,0l.05,0,0,0Z"/><path class="cls-2" d="M86.52,13.88h0Z"/><polygon class="cls-2" points="57.87 38.11 57.84 38.09 57.84 38.15 57.87 38.11"/><path class="cls-2" d="M89.32,13.34l0,0Z"/><path class="cls-2" d="M90.48,13h0Z"/><path class="cls-2" d="M91.39,12.79a.22.22,0,0,0,0-.06h0Z"/><path class="cls-2" d="M78.05,19l0,0C78,19.1,78,19.06,78.05,19Z"/><path class="cls-2" d="M81.72,16.55a.87.87,0,0,1-.09.13C81.7,16.65,81.75,16.62,81.72,16.55Z"/><polygon class="cls-2" points="74.09 21.88 74.09 21.88 74.06 21.9 74.09 21.88"/><path class="cls-2" d="M81.44,16.77a.3.3,0,0,0,.18-.1A.46.46,0,0,0,81.44,16.77Z"/><path class="cls-2" d="M95.3,11.85h0a0,0,0,0,1,0,0Z"/><path class="cls-2" d="M95.35,11.83l0,0S95.35,11.81,95.35,11.83Z"/><path class="cls-2" d="M95.49,11.75l-.1.06S95.47,11.79,95.49,11.75Z"/><path class="cls-2" d="M94.09,12.06v.05A.1.1,0,0,0,94.09,12.06Z"/><path class="cls-2" d="M93.73,12.16c.09,0,.24.05.36,0v0C94,12.2,93.79,12.06,93.73,12.16Z"/><path class="cls-2" d="M92.05,12l.32,0c-.07,0-.16-.09,0-.14C91.92,11.71,92.46,11.86,92.05,12Z"/><path class="cls-2" d="M91.09,12.15c.16-.07,0-.07,0-.11S91,12.14,91.09,12.15Z"/><path class="cls-2" d="M84.43,14.64l0-.12C84.28,14.59,84.42,14.57,84.43,14.64Z"/><polygon class="cls-2" points="83.48 15.81 83.63 15.83 83.64 15.69 83.48 15.81"/><polygon class="cls-2" points="82.37 15.34 82.41 15.3 82.23 15.44 82.37 15.34"/><path class="cls-2" d="M72.26,21.73l.13.1C72.44,21.75,72.35,21.6,72.26,21.73Z"/><path class="cls-2" d="M68.38,25.13a.21.21,0,0,0-.25.15C68.22,25.22,68.35,25.19,68.38,25.13Z"/><polygon class="cls-2" points="57.69 36.27 57.71 36.16 57.62 36.34 57.69 36.27"/><path class="cls-2" d="M96.52,11.12s.08-.12.06-.1l-.1.14Z"/><path class="cls-2" d="M96.64,10.83a2.72,2.72,0,0,0-.22.3l.17-.22s0,.05-.05.1,0,0,.05,0,.06-.12,0,0Z"/><path class="cls-2" d="M96.18,10.22v0Z"/><path class="cls-2" d="M95.86,9.9l0,0Z"/><path class="cls-2" d="M95.89,9.7h0S95.9,9.69,95.89,9.7Z"/><path class="cls-2" d="M96.18,10.22l0,0S96.18,10.21,96.18,10.22Z"/><path class="cls-2" d="M96.34,11.11l0,0h0Z"/><path class="cls-2" d="M96.42,10.22h0l0-.05Z"/><path class="cls-2" d="M96.56,10.28l-.11.16.06-.08Z"/><path class="cls-2" d="M96.62,10.62h0Z"/><path class="cls-2" d="M96.35,10.13l0,0Z"/><path class="cls-2" d="M92.23,8.68v0Z"/><path class="cls-2" d="M92.46,8h0l0-.07Z"/><path class="cls-2" d="M95.88,9.48h0S95.88,9.47,95.88,9.48Z"/><path class="cls-2" d="M94.75,8.86c-.06.11-.11.12-.17.25A1.85,1.85,0,0,0,94.75,8.86Z"/><path class="cls-2" d="M96.35,11.1h0Z"/><path class="cls-2" d="M94.58,9.11h0Z"/><path class="cls-2" d="M95.56,9.37l0,.05Z"/><path class="cls-2" d="M95.65,9.67v0Z"/><path class="cls-2" d="M95.35,9.47s0,0,0,0v0S95.36,9.45,95.35,9.47Z"/><path class="cls-2" d="M95.24,9.4v0h0Z"/><path class="cls-2" d="M92.59,8.84l.06-.11C92.61,8.82,92.57,8.83,92.59,8.84Z"/><path class="cls-2" d="M96.38,11l0,0h0Z"/><path class="cls-2" d="M94.73,10.39v0S94.73,10.38,94.73,10.39Z"/><path class="cls-2" d="M93.38,9.34h0Z"/><path class="cls-2" d="M94.66,10.34l0-.09,0,0Z"/><path class="cls-2" d="M92.66,8.73h0Z"/><path class="cls-2" d="M92.36,8.93s.11-.15.17-.23-.07.12-.11.2.14-.17.15-.16l0,.07c.09-.11,0,0,.16-.12l0,0,.14-.21s.08-.09,0,0l-.05.06,0,0c-.09.15,0,0-.11.15s.14-.15.13-.1-.06,0-.13.17l0-.07c-.13.23,0,0-.15.22,0,.06.07-.05.07,0l.13-.19c.13-.12-.21.37-.06.2s.19-.27.14-.16l-.11.16s.16-.22.12-.1-.05,0-.06.06.07-.08.08-.08L92.78,9s.13-.09.18-.1a.87.87,0,0,0-.09.13c.08,0,.06.06,0,.17L93,9.06l-.05.08c0,.05.05-.08.09-.12s0,.08-.07.11.21-.18.15,0l0,0c0,.06.19-.24.13-.11l0,0c0,.08.12,0,0,.2.12-.17,0,.1.15-.14a1.5,1.5,0,0,0-.12.28s.11-.15.14-.16l-.08.13.1-.13-.09.16,0,0,.05-.1c.05,0,0,.11-.06.18l.11-.08-.08.09c.11-.12-.09.14,0,0l.07-.1c0,.08,0,.1,0,.07l-.06.09s.09,0,.11,0a.88.88,0,0,1,.14-.21l-.09.14a1.62,1.62,0,0,1,.1-.15.87.87,0,0,1-.13.2l0,0-.08.11c.06-.08-.07.15,0,0l0,0s.07,0,.1,0a1.52,1.52,0,0,1,.14-.17s0,.16,0,.16a1.24,1.24,0,0,0,.12-.16c-.07.11,0,.11-.1.18s0,0,.14-.06l.06-.1s0,.05-.05.1h0c.14-.14-.12.37.06.17h0l.11-.1s-.06.07-.09.15c.15-.16,0,.06.14,0-.19.33.09,0,0,.25l0-.08c.06-.07,0,0,0,.07a.93.93,0,0,1,.07-.11c.12,0,.06.19.08.3s.27-.38.18-.18l-.1.13c.16-.13.09.07.23,0l-.06.07c-.06.11,0,0,.09-.05a1.14,1.14,0,0,1-.07.12c0,.07.11-.11,0,0l0,0s0,0,.09-.09c0,.07.07,0,0,0,.09-.12,0,.08.11-.1-.13.19-.07.17,0,.09s0,.07-.09.14,0,0,.11-.12c-.13.24.17-.15,0,.15a1,1,0,0,1,.25-.14c-.13.19,0,0-.18.19.08-.06.21-.21.21-.14a.5.5,0,0,1-.08.11c.08-.06.05.06.15,0l0,0s0,0,.05,0l0,0a3,3,0,0,1,.24-.31c-.17.24,0,.08-.23.38l.08-.11a.41.41,0,0,1-.07.12c.05,0,.1-.13.12-.12l-.08.1c.06-.07.13-.15.12-.1l0,.05s.19-.19.16-.09,0,.07-.13.22l0,0,0-.08s.1-.09.08,0l-.05.06h0l0-.07c.07-.07.13-.2.12-.14s0,0,0,.11h0s.08-.09.07,0l-.14.21c.09-.13.06,0,.16-.15l-.09.13.08-.1a.57.57,0,0,1-.07.12s.12-.2.09-.1l0,0c0,.06.09,0,.07,0s0,0-.12.16.19-.15.19-.09v0c.15-.22-.05.12,0,0l-.07.1s.08,0,.15-.08l0,.05c0,.06,0,0,0,.08A.7.7,0,0,0,96,10.6c-.17.35.19-.12,0,.17l0,0,.06,0a1.29,1.29,0,0,0,.08-.14c0-.05.08-.09.09-.09a.91.91,0,0,0-.13.21l.06-.09c-.1.18.13-.19.08-.06l0,0s.08-.08.08-.06,0,0-.1.14.16-.2.1-.08l-.06.05c-.07.14-.05.11-.06.13h0l0,.07,0,0c.21-.28.07,0,.21-.21a1.22,1.22,0,0,0-.16.23.66.66,0,0,1-.06.12c.08-.1,0,.09.07,0a.5.5,0,0,1-.06.11s0-.07.08-.12-.07.2.09,0,.17-.2.24-.25a.79.79,0,0,1-.1.14c0,.07,0,.06,0,0l-.07.11s.1-.14.08-.08l-.12.16L96.5,11a1.1,1.1,0,0,1-.11.15.48.48,0,0,0,.15-.15l0,0-.08.12c-.07.08,0,0,0-.09l0,0c.15-.24-.06,0-.06,0l.12-.17-.11.13a1,1,0,0,1,.11-.17c0-.09-.05.06,0,0l0,0,0,0s.08-.12.07-.09-.12.11,0,0h0c-.07,0-.09.13-.21.26l.19-.32-.09.13s0,0,0-.07,0,.06-.1.13c.06-.13-.07,0,.06-.18-.07.09,0,.08-.1.14.14-.22,0,0,0-.08s.05,0,.1-.15c-.13.19,0-.06,0,0s-.06,0-.12.09,0-.11,0-.17l0,0c-.1.15-.1.11-.14.13l.12-.16h0l-.07.08.08-.11s-.12.11-.09,0a2.67,2.67,0,0,1-.25.37,1.81,1.81,0,0,1,.12-.18s0,0,0,0l.07-.09s-.06.08-.06.06l.08-.13s0,0,0,0a.48.48,0,0,1,.06-.14.67.67,0,0,1-.09.12s.06-.1.08-.15,0,0-.09.11a.59.59,0,0,1,.05-.1s0,0-.13.13h0c-.11.11,0-.11-.07-.07l0,0s-.05,0-.12.09a.57.57,0,0,1,.07-.13s-.06.07,0,0,0-.07,0,0,0-.11,0,0c.08-.1.08-.14,0-.11L96,10s0,0,0,0l.1-.14c.08-.19-.25.25-.08,0-.07.09,0,.08-.11.19s.11-.24.11-.24-.15.19-.14.12a1.14,1.14,0,0,1-.16.22,1,1,0,0,1,.15-.25s0,0,0,0a.26.26,0,0,0,.07-.09l0,0c0-.06,0-.06.06-.14a.23.23,0,0,0-.07.11c0-.08,0,0,0-.08l-.05.09c0-.08-.07.09-.11.09s.12-.18.06-.13a.72.72,0,0,1,.12-.17c-.08.08,0-.08,0-.11l0,0s0,0,0,0l-.06.1a.14.14,0,0,1,0-.07c0,.06-.1.17-.17.25s-.06,0,0-.09c0,.06.08-.13.12-.14s0,0,0,0l0,0c.06-.13-.11.14-.13.12s.09-.14.07-.13a.77.77,0,0,1-.12.18c0-.07,0,0,0,0v0c-.05.07-.05.06-.08.07s0,0,0-.06c-.1.12.06-.15,0-.07s.09-.14.11-.18,0-.11,0,0a.65.65,0,0,1-.12.17l.08-.05-.11.13s.06,0,.05,0a.57.57,0,0,0-.1.14c.09-.16-.08.07,0,0l.16-.25c.05-.12-.12.1-.11,0l0,0c-.07.1,0,0-.06,0a1.65,1.65,0,0,0,.1-.17c0,.06,0,0-.13.14l.06-.12c0-.06-.18.22-.18.18a1.89,1.89,0,0,1,.15-.2s0,0,0,0-.09.1,0,0-.08.12-.09.11l0,0a.88.88,0,0,0-.1.14c.15-.27-.07,0,.05-.26l-.09,0,0,0c0-.09-.17.23-.13.13s.06-.06.09-.12c.18-.27-.05,0,0-.15h0c0-.1-.1.08-.1.05l0,0a.65.65,0,0,1-.2.19A1.16,1.16,0,0,0,95,9.3s-.11.17-.15.19A2.28,2.28,0,0,1,95,9.26h0c.09-.15,0,0,0,0l0-.06s-.15.17-.16.14l0,.05c-.12.15,0-.1,0,0l.1-.17a1.67,1.67,0,0,1-.17.16,2.58,2.58,0,0,1,.21-.23s0,0-.1.07,0-.05,0,0-.15.18-.17.16c.21-.32,0-.11.16-.37-.11.1,0-.09-.08-.1-.15.26,0,0-.18.26,0,0,0,0,0,0l.07-.17c0-.08,0-.05.08-.11s.06-.11.1-.19c-.06.09-.09.13-.08.08l-.06.13c-.12.12.12-.23,0-.11l.06-.07s0,0-.2.16a.64.64,0,0,1,.08-.12c0-.05-.22.17-.16,0l0-.06s-.09.11-.05,0l0-.07s-.09.1-.07.06l.05-.07c0-.1-.16.14-.22.16a.76.76,0,0,0,.14-.3l0,0s-.16.11-.25.16c.11-.21,0-.13,0-.27a.87.87,0,0,1-.11.16s-.11.11,0-.05h0c.1-.17.06-.14,0-.15L94,8.55c.18-.34-.17.06,0-.24l-.1.09L94,8.28s0-.07-.05-.06L94,8.14s-.24.33-.26.32l.11-.18s0-.19-.09,0l.06-.08s0-.15-.13.09c.1-.16,0,0-.08,0l.08-.11a1,1,0,0,1-.18.21s.06-.1,0-.06-.08.1-.06,0l.06-.07s0,0-.1.1,0,0,.06-.15c0,.06-.11.14-.1.11l.05-.07c0-.09-.12.11-.07,0l0-.07s0,0,0,0a2.34,2.34,0,0,1,.18-.28c-.07.07-.2.23-.18.17l0,0h0s0,0,0,0,0,0,0,0,0-.06,0-.07a1.72,1.72,0,0,0-.13.2h0c0,.06-.08.1-.05,0l-.14.18c.1-.17.14-.27.2-.38a.53.53,0,0,0-.24.22s0-.07.05-.1l0,0c-.05,0-.05,0-.16.15,0-.08.1-.14.06-.13l0,0c.12-.28-.33.34-.17,0l0,.06c0-.18-.2.05-.12-.21,0-.06-.05,0-.11.11l.08-.13L92.74,8c-.09.09.16-.34,0-.15l-.05.09s-.07,0,0-.07-.06.09,0,0l0-.07-.1.1c0-.06.18-.26.15-.29a1.3,1.3,0,0,0-.18.22A.34.34,0,0,1,92.5,8l0,0a3.89,3.89,0,0,0-.33.54l.1-.11-.06.1h0c-.05.09,0,0,0,0l-.06.11.14-.17a1.46,1.46,0,0,0-.12.2c.06-.08.1-.18.16-.22s-.1.16,0,.1l-.07.1c0-.05,0,0,.11-.11-.06.11,0,0-.07.17a.85.85,0,0,1,.12-.14c-.16.21,0,0-.14.27.14-.19.1-.06.19-.16l0,0a.69.69,0,0,1-.05.13,2.69,2.69,0,0,1,.23-.28c-.09.17-.13.19-.23.34.09-.13.11-.12.18-.23a1.67,1.67,0,0,1-.11.19c.14-.2,0,0,.12-.15-.05.11-.12.19-.07.14A.6.6,0,0,1,92.36,8.93Zm.62-.1h0Zm0,0h0l.06-.08A.51.51,0,0,0,93,8.85ZM93.48,8s0,0,0,0h0Z"/><path class="cls-2" d="M93.37,8.14h0v0l0,0Z"/><path class="cls-2" d="M96.17,10.24h0v0Z"/><polygon class="cls-2" points="93.31 9.37 93.33 9.34 93.31 9.37 93.31 9.37"/><path class="cls-2" d="M96.09,10.76l0,0Z"/><path class="cls-2" d="M96.14,10.84l0,0Z"/><path class="cls-2" d="M96.16,10.94l0,0h0Z"/><path class="cls-2" d="M95.14,10.46h0Z"/><path class="cls-2" d="M95.6,10.37l0,0S95.55,10.43,95.6,10.37Z"/><polygon class="cls-2" points="94.73 10.39 94.73 10.39 94.73 10.39 94.73 10.39"/><path class="cls-2" d="M95.54,10.41s0,0,0,0S95.56,10.39,95.54,10.41Z"/><path class="cls-2" d="M96.38,11.16h0v0Z"/><path class="cls-2" d="M96.4,11.15h0Z"/><path class="cls-2" d="M96.44,11.11l0,0Z"/><path class="cls-2" d="M96.34,11.05l0,0Z"/><path class="cls-2" d="M96.31,11s0,.1,0,.08l0,0C96.27,11.16,96.36,11,96.31,11Z"/><path class="cls-2" d="M96.56,10.46v0a.41.41,0,0,1,.08-.12C96.7,10.24,96.57,10.49,96.56,10.46Z"/><path class="cls-2" d="M96.54,10.35s0-.07.06-.09A.23.23,0,0,0,96.54,10.35Z"/><path class="cls-2" d="M96.1,10.06l.07-.11S96.14,10,96.1,10.06Z"/><polygon class="cls-2" points="95.65 10.55 95.61 10.63 95.68 10.53 95.65 10.55"/><polygon class="cls-2" points="96.1 9.76 96.11 9.75 96.07 9.78 96.1 9.76"/><path class="cls-2" d="M95.33,9.3l-.08.13S95.36,9.27,95.33,9.3Z"/><path class="cls-2" d="M94.92,9.23c0-.07.06-.12,0-.06S94.9,9.24,94.92,9.23Z"/><polygon class="cls-2" points="94.09 8.37 94.13 8.33 94.09 8.36 94.09 8.37"/><path class="cls-2" d="M97,10.9s-.14,0-.12,0l.16,0Z"/><path class="cls-2" d="M96.71,10.91a2,2,0,0,0,.36.09l-.27-.08s.06,0,.11,0,0,0-.06,0-.14,0,0,0Z"/><path class="cls-2" d="M96.27,11.84h0Z"/><path class="cls-2" d="M96.06,12.43h0Z"/><path class="cls-2" d="M95.86,12.5h0Z"/><path class="cls-2" d="M96.27,11.84h-.05C96.27,11.86,96.25,11.85,96.27,11.84Z"/><path class="cls-2" d="M97.08,11.12l0,0h0Z"/><path class="cls-2" d="M96.19,11.55h0l-.07,0Z"/><path class="cls-2" d="M96.2,11.34l.19,0-.09,0Z"/><path class="cls-2" d="M96.51,11.06h0Z"/><path class="cls-2" d="M96.13,11.69h0Z"/><path class="cls-2" d="M96,17.64h0Z"/><path class="cls-2" d="M95.32,17.75h0l-.08,0Z"/><path class="cls-2" d="M95.65,12.66h0Z"/><path class="cls-2" d="M95.41,14.42c.13,0,.15.06.29.06A1.34,1.34,0,0,0,95.41,14.42Z"/><path class="cls-2" d="M97.06,11.13h0S97.06,11.13,97.06,11.13Z"/><path class="cls-2" d="M95.7,14.48h0Z"/><path class="cls-2" d="M95.64,13.11h0Z"/><path class="cls-2" d="M95.9,12.82h0Z"/><path class="cls-2" d="M95.81,13.32s0,0,0,0h0S95.78,13.32,95.81,13.32Z"/><path class="cls-2" d="M95.77,13.5h0Z"/><path class="cls-2" d="M96.08,17.09l-.13,0C96.06,17.09,96.09,17.13,96.08,17.09Z"/><path class="cls-2" d="M97,11.11l.06,0H97Z"/><path class="cls-2" d="M96.89,13.54l0,0Z"/><path class="cls-2" d="M96.31,15.83h0Z"/><path class="cls-2" d="M96.87,13.65h0Z"/><path class="cls-2" d="M96,17.08h0Z"/><path class="cls-2" d="M96.25,17.33s-.18,0-.28-.07.14,0,.23,0-.21-.08-.2-.09h.08c-.14,0,0-.06-.17-.12h0l-.25,0s-.11,0,0,0l.08,0,0,0c.17,0,.06,0,.18.05-.05,0-.19-.09-.13-.1s0,.05.2.06l-.07,0c.27,0,0,0,.26,0,.06,0-.08-.06,0-.09L95.94,17c-.16-.09.43,0,.21,0s-.32-.08-.2-.08l.19,0s-.27-.07-.13-.09.06,0,.08,0-.1,0-.1-.06l.17,0s-.13-.11-.15-.16a.63.63,0,0,0,.15,0c-.07-.07,0-.11.15-.15l-.14,0h.09c.06,0-.09,0-.15,0s.09,0,.13,0c-.11-.06-.24-.15-.08-.16l0,0c.06,0-.29-.09-.15-.09h0c.07-.05,0-.15.18-.16-.21,0,.11,0-.18-.11a1.15,1.15,0,0,0,.31,0s-.18-.06-.2-.08l.15,0-.15-.05.18,0,0,0h-.11c-.06,0,.12,0,.2,0l-.12-.08.12,0c-.15-.06.16,0,0,0l-.12,0c.09,0,.1,0,.07-.06l.1,0s0-.1,0-.15a.64.64,0,0,1-.25,0l.16,0c-.1,0-.06,0-.18,0a.63.63,0,0,1,.23,0l-.05,0,.13,0c-.1,0,.17,0,0-.05h0s0-.08,0-.12a1.13,1.13,0,0,1-.21-.07s.16,0,.16-.07a.9.9,0,0,0-.2-.06c.13,0,.12,0,.21,0s0-.06-.11-.13h-.12s.06,0,.12,0h0c-.18-.1.39-.07.14-.17h0l-.13-.08s.09,0,.17,0c-.2-.1,0-.08-.08-.15.38,0,0-.13.24-.13h-.09c-.08,0,.05,0,.07,0l-.13,0c-.09-.12.17-.19.27-.28s-.45-.11-.23-.12l.16,0c-.18-.12,0-.16-.11-.27l.08,0c.12,0,0-.06-.08-.08s.09,0,.14,0-.14-.07,0-.06l0,0c-.05,0,0,0-.11-.06.07,0,0-.07,0-.07-.15,0,.08,0-.13-.08.22,0,.19,0,.09-.05.07,0,.07,0,.16,0s0,0-.15-.07c.27,0-.2-.12.15-.07a1,1,0,0,1-.22-.22c.22,0,0,.06.24.11-.08-.07-.27-.14-.2-.18s.09,0,.13,0,0-.1-.07-.17l.06,0s0,0-.06,0h0a2.16,2.16,0,0,1-.37-.11c.29.07.08,0,.44.06l-.13,0a.3.3,0,0,1,.14,0s-.16-.05-.15-.08l.12,0c-.09,0-.18-.07-.14-.08l.07,0s-.24-.12-.14-.15.07,0,.26,0l0,0h-.09s-.12-.07-.06-.07l.07,0,0,0h-.07c-.09,0-.23,0-.18-.06s0,0,.12,0h0c-.06,0-.12,0-.07-.05l.24,0c-.15,0,0-.06-.19-.11l.15,0-.12,0,.14,0s-.23,0-.13-.05l0,0c.06,0-.07-.09,0-.11s0,0,.2.06c0-.06-.2-.14-.15-.18h0c-.26-.06.14,0,0-.06l.11,0s-.05-.08-.12-.14l.07,0c.06,0,0,0,.08-.06a.51.51,0,0,0-.15,0c.39,0-.18-.16.15-.16l.06,0-.05-.06h-.16c-.07,0-.12,0-.11-.05a.66.66,0,0,0,.25,0l-.11,0c.21,0-.23,0-.08-.06h.06s-.1,0-.08-.06.06,0,.17,0-.24-.09-.11-.08l.07,0c.16,0,.12,0,.15,0h0l.08,0h0c-.34-.09-.05-.06-.27-.14a.88.88,0,0,0,.27.06H97c-.12,0,.1,0-.07-.06,0,0,0,0,.13,0,0,0-.08,0-.14,0s.21,0,0-.12-.24-.1-.32-.15a.57.57,0,0,1,.17,0c.07,0,.06,0,0-.05l.13,0s-.17,0-.1,0l.19.05L96.87,11a.81.81,0,0,1,.18.05.38.38,0,0,0-.2-.1h0l.14,0c.1,0-.05,0-.1,0l0,0c-.28,0,0,.06,0,.08l-.2-.05.16.06a.71.71,0,0,1-.2,0c-.1,0,.07,0,0,0h0l.06,0s-.14,0-.11,0c-.12,0,.14.08,0,.06h0c.06.06.15,0,.32.1l-.37,0,.15,0s0,0-.08,0a1.28,1.28,0,0,0,.16,0c-.14,0,.05.07-.19,0,.11,0,.09,0,.17,0-.26,0,0,0-.08,0s-.06,0-.18,0c.22.06-.06,0,0,.06s.07.05.12.09-.11,0-.18,0h0c.18,0,.14.06.17.09l-.2-.05v0l.1,0-.13,0s.15.08.05.1a1.92,1.92,0,0,1,.43.09l-.21,0s.05,0,0,0l-.11,0c-.05,0,.09,0,.08,0l-.15,0s0,0,0,0a.36.36,0,0,1-.15,0l.14,0s-.12,0-.17,0,0,0,.14.05h-.11c.06,0,0,.06.16.08h0c.14.07-.1.07,0,.13h0c.05,0,0,.06.12.1h-.15s.09,0,0,.05-.08,0-.06,0-.13,0,0,.06c-.12,0-.16,0-.13,0h.09s0,0,0,0l-.16,0c-.21,0,.32.16,0,.13.11,0,.09,0,.22,0a2.07,2.07,0,0,1-.27,0c-.1,0,.23.08.16.1a.83.83,0,0,1,.27.07.73.73,0,0,1-.29,0h0a.19.19,0,0,0-.11,0H96c-.06,0-.06,0-.16,0a.17.17,0,0,0,.13,0c-.09,0,0,0-.07.07H96c-.08,0,.11,0,.13.08s-.21,0-.14,0a.52.52,0,0,1-.2,0c.11.05-.08,0-.11.05l0,0s0,0,0,0h.12a.11.11,0,0,1-.07,0c.07,0,.2,0,.3.07-.06,0,.06,0-.1,0,.06,0-.16,0-.17-.06s0,0,0,0h0c-.15,0,.17.05.16.09s-.17,0-.15,0a.56.56,0,0,1,.21,0c-.07,0,0,0,0,0h0c.09,0,.07,0,.1.05l-.07,0c.15,0-.17,0-.07.06l-.21,0c.11.05-.13,0,0,.06a.48.48,0,0,1,.2.05l-.07-.07.16.06s-.07,0,0-.05a.41.41,0,0,0,.16,0c-.18,0,.09.06,0,.06L95.74,13c-.14,0,.14.09.05.12h.05c.11,0,0,0,.05.06l-.2,0c.07,0,0,0,.18.07h-.13c-.06,0,.27.1.23.12a1.39,1.39,0,0,1-.25-.07s0,0,0,0,.12.06,0,.05.14,0,.13,0h0a.64.64,0,0,0,.17,0c-.31,0,0,.11-.26.09a.22.22,0,0,1,.06.09h0c-.1,0,.27.07.17.09s-.08,0-.14,0c-.32-.06,0,.05-.16,0h0c-.11,0,.11.07.08.1h0a.52.52,0,0,1,.24.14.84.84,0,0,0-.19,0s.2,0,.23.07a1.68,1.68,0,0,1-.27,0v0c-.18,0,0,0,0,0l-.08,0s.21.08.19.12h.06c.19.06-.11,0,0,0l-.2,0a1.31,1.31,0,0,1,.21.12,1.94,1.94,0,0,1-.29-.12s0,.05.1.08-.06,0,0,0,.22.09.21.12c-.37-.08-.11.06-.41,0,.13.08-.08.09-.07.16.3,0,0,0,.31.07,0,0,0,0,0,0h-.19c-.09,0-.06,0-.13,0s-.13,0-.21,0c.11,0,.15,0,.11.05h.14c.15.07-.26,0-.11.06l-.09,0c.05,0,0,.08.22.15a.47.47,0,0,1-.14,0s.23.17.08.18l-.07,0s.13,0,.06,0h-.08s.12.05.08.06l-.08,0c-.11,0,.19.12.23.17a.58.58,0,0,0-.33,0h0c0,.06.16.14.23.21-.24,0-.12.1-.26.13a.63.63,0,0,1,.19,0s.14.07-.05,0h0c-.2,0-.15,0-.16,0l.26.05c-.39,0,.11.17-.23.14l.12.07-.14,0s-.06,0,0,.1l-.1,0s.39.11.4.14l-.21,0s-.2.06,0,.14L95,16s-.16.05.13.1c-.19,0,0,0,0,.08l-.14,0c.17.05.22.06.26.1s-.11,0-.07,0,.13,0,0,.06l-.09,0s0,0,.13.06,0,0-.17,0c.07,0,.17.05.13.06l-.09,0c-.1,0,.15.09,0,.09h-.08s0-.05,0,0a1.69,1.69,0,0,1-.32-.06c.09,0,.29.11.23.13H95s0,0,0,0h0c-.1,0-.06,0-.07,0a1.25,1.25,0,0,0,.23,0h0a.13.13,0,0,1,0,0c.07,0,.13,0,0,0l.22.06c-.2,0-.31,0-.43,0a.44.44,0,0,0,.29.17s-.08,0-.12,0l-.06,0c.06,0,0,.07.19.11-.09,0-.16,0-.14,0l-.05,0c-.3,0,.44.21.05.22h.07c-.18.06.12.22-.16.26-.06,0,.06,0,.14.07l-.15,0,.17.06c.12.06-.38,0-.15.09h.1s0,.07-.07,0,.1,0,0,0h-.08l.12.07c-.06,0-.31-.07-.33,0a1,1,0,0,0,.27.1.26.26,0,0,1,.13,0l0,0a2.82,2.82,0,0,0,.63.1l-.13-.06h.11v0c.11,0,0,0,0,0H96l-.21-.07a1.05,1.05,0,0,0,.23,0,2.46,2.46,0,0,1-.27-.06c.11,0,.19,0,.1,0l.12,0c-.07,0,0,0-.14-.07.13,0,0-.05.19,0a.64.64,0,0,1-.17-.07c.25.07,0,0,.3,0-.23-.06-.09-.08-.21-.14l0,0a.52.52,0,0,1,.14,0,2,2,0,0,1-.35-.11,3.72,3.72,0,0,1,.4.09c-.16,0-.15-.07-.28-.09l.22,0c-.24,0,0,0-.18-.07.12,0,.23,0,.16,0A.44.44,0,0,1,96.25,17.33Zm-.29-.7h0Zm0-.05v0l-.09,0Zm-1-.08s0,0,0,0v0h0Z"/><path class="cls-2" d="M95.16,16.54h0Z"/><path class="cls-2" d="M96.29,11.84h0Z"/><polygon class="cls-2" points="96.37 15.9 96.33 15.89 96.36 15.9 96.37 15.9"/><path class="cls-2" d="M96.82,11.64h0Z"/><path class="cls-2" d="M96.88,11.53h0Z"/><path class="cls-2" d="M97,11.44h0Z"/><path class="cls-2" d="M96.83,13h0Z"/><path class="cls-2" d="M96.59,12.48l.06,0S96.67,12.5,96.59,12.48Z"/><polygon class="cls-2" points="96.9 13.54 96.89 13.54 96.89 13.54 96.9 13.54"/><path class="cls-2" d="M96.65,12.53s0,0,0,0S96.63,12.52,96.65,12.53Z"/><path class="cls-2" d="M97.11,11h0Z"/><path class="cls-2" d="M97.09,11h0Z"/><path class="cls-2" d="M97,11l0,0S97.08,11,97,11Z"/><path class="cls-2" d="M97,11.16h0Z"/><path class="cls-2" d="M97,11.2s.11,0,.08,0h0C97.14,11.19,96.94,11.17,97,11.2Z"/><path class="cls-2" d="M96.37,11.24l0,0c-.05,0-.13,0-.14,0C96.12,11.19,96.4,11.2,96.37,11.24Z"/><path class="cls-2" d="M96.28,11.32s-.08,0-.11,0A.17.17,0,0,0,96.28,11.32Z"/><path class="cls-2" d="M96.14,12,96,12S96.06,12,96.14,12Z"/><polygon class="cls-2" points="96.76 12.31 96.84 12.31 96.72 12.28 96.76 12.31"/><polygon class="cls-2" points="95.85 12.22 95.83 12.21 95.87 12.24 95.85 12.22"/><path class="cls-2" d="M95.66,13.44l.16,0S95.61,13.42,95.66,13.44Z"/><path class="cls-2" d="M95.71,14c-.08,0-.13,0-.06,0S95.73,14,95.71,14Z"/><polygon class="cls-2" points="95.15 15.52 95.1 15.5 95.14 15.53 95.15 15.52"/></g><g class="cls-1"><text class="cls-3" transform="translate(101.83 16.41)">Histórico/Anotações</text></g><g class="cls-4"><path d="M64.83,99a37.86,37.86,0,0,0-53.67,0H0v26.48C0,146,16.74,163.86,37.22,164.27A38.09,38.09,0,0,0,76,126.09V99Z"/></g><circle class="cls-5" cx="38" cy="95.05" r="38"/><circle class="cls-6" cx="38" cy="104.05" r="38"/><path class="cls-2" d="M24.34,119.89l4-4A17.09,17.09,0,1,1,52.05,92.18l4-4a22.7,22.7,0,1,0-31.73,31.73Z"/><path class="cls-2" d="M35.3,101.59v.46a2.12,2.12,0,0,0,2.12,2.12h2.65l4.69-4.69H40.53V90a2.62,2.62,0,0,0-5.25,0v11.09a2.57,2.57,0,0,0,0,.36S35.3,101.54,35.3,101.59Z"/><path class="cls-2" d="M61.7,101.28,35.91,127.13a6.69,6.69,0,0,1-4.66-1.84,6.55,6.55,0,0,1-1.8-4.08L55.65,95.06l.41,2.39,2.45.71.78,2.17Z"/><path class="cls-2" d="M59.4,93.8l4.15-1.1a.61.61,0,0,1,.8.86l-1,3.93a4.86,4.86,0,0,1-2.69-1.38A4.57,4.57,0,0,1,59.4,93.8Z"/></g></g></svg>