<svg xmlns="http://www.w3.org/2000/svg" viewBox="0 0 373.94 77.15"><defs><style>.cls-1,.cls-3{opacity:0.57;}.cls-2,.cls-3{fill:#fff;}.cls-3{font-size:19px;font-family:Kalam-Light, Kalam;}</style></defs><title>balança_Ativo 9</title><g id="Camada_2" data-name="Camada 2"><g id="tela_1" data-name="tela 1"><g class="cls-1"><path class="cls-2" d="M89.9,36.92c.05-.09,0-.28-.12-.24l-.1.33Z"/><path class="cls-2" d="M88.93,36.31a.73.73,0,0,0-.25.75c.17-.32.21-.19.38-.57a.19.19,0,0,1,.23.23c.05-.09.22.07.3-.14a.41.41,0,0,0-.67-.05C88.86,36.46,88.92,36.38,88.93,36.31Z"/><path class="cls-2" d="M75,35.1l.09,0A.17.17,0,0,0,75,35.1Z"/><path class="cls-2" d="M66.55,33.72c.07,0,.1,0,.11-.05S66.54,33.69,66.55,33.72Z"/><path class="cls-2" d="M65.17,33.11l.08,0S65.19,33.09,65.17,33.11Z"/><path class="cls-2" d="M75,35.1,74.83,35C74.8,35.08,74.94,35.06,75,35.1Z"/><path class="cls-2" d="M87,37.11a.3.3,0,0,0,.13-.09l-.12,0Z"/><path class="cls-2" d="M78.85,35.17h.07L79,35Z"/><path class="cls-2" d="M81.75,35.3c-.06,0-.1.26-.13.38,0-.11.09-.17.15-.18A.72.72,0,0,0,81.75,35.3Z"/><path class="cls-2" d="M86.35,36l.08,0Z"/><path class="cls-2" d="M76.78,34.94a.33.33,0,0,0,0-.1A.22.22,0,0,0,76.78,34.94Z"/><path class="cls-2" d="M2.17,4.43l0,0S2.16,4.42,2.17,4.43Z"/><polygon class="cls-2" points="0.62 1.1 0.66 1.12 0.78 1.01 0.62 1.1"/><path class="cls-2" d="M62.61,32.23h0C62.7,32.22,62.66,32.22,62.61,32.23Z"/><path class="cls-2" d="M39.15,25.13c.16.34-.55.12-.27.54C38.89,25.56,39.4,25.41,39.15,25.13Z"/><path class="cls-2" d="M86.92,37.07H86.8A.24.24,0,0,0,86.92,37.07Z"/><path class="cls-2" d="M38.88,25.67h0l0,0Z"/><path class="cls-2" d="M56.57,31a.36.36,0,0,0,0,.14A.24.24,0,0,0,56.57,31Z"/><path class="cls-2" d="M61,32.47l-.1-.06A.28.28,0,0,0,61,32.47Z"/><path class="cls-2" d="M54.16,30.77c-.05,0-.06-.08-.15-.07l0,0S54.1,30.7,54.16,30.77Z"/><path class="cls-2" d="M51.77,30.06l0,.07h.08Z"/><path class="cls-2" d="M8.12,9.31A.9.9,0,0,1,8.18,9C8.09,9.22,7.76,9,8.12,9.31Z"/><path class="cls-2" d="M87,36.95c0,.07,0,.11-.08.12H87A.15.15,0,0,0,87,36.95Z"/><path class="cls-2" d="M53.46,32.87l-.37-.15A1.82,1.82,0,0,0,53.46,32.87Z"/><path class="cls-2" d="M23.05,19.59l-.1,0A.09.09,0,0,0,23.05,19.59Z"/><path class="cls-2" d="M51.93,32.42a.59.59,0,0,0-.16-.25.24.24,0,0,0-.07.06Z"/><path class="cls-2" d="M8.18,9h0Z"/><path class="cls-2" d="M5.71,7.88c.29.25.37-.16.57-.27.42.21,0,.35,0,.59.28.11.67,0,.83.13,0,.06,0,.1-.09.13.42,0,.7.55,1.21.49a.23.23,0,0,1,0,.1,1.39,1.39,0,0,1,.28-.43c.14.1.39,0,.29.25-.08-.07-.14,0-.23,0l.2,0c-.09.37-.26-.06-.43.14.34.14.84.16,1,.4-.17.3-.56-.3-.47.16l-.25-.36c-.09.62-.17-.19-.3.44.37.41.59.24,1,.65.21-.07.14-.25.35-.32.82.21,0,1.05.69,1,.25-.09.56-.39.75,0l-.34.22c.4.35.58-.26.86.28-.17.06-.41-.15-.37-.06.11.46.33,0,.56.14l-.16.31c.49.29,1.12.48,1.67.78-.09.06-.24.09-.18.25a5.48,5.48,0,0,1,1.85,1.62l.41-.08a.11.11,0,0,1-.06.19c.18.26.12-.14.3-.16a.14.14,0,0,1-.05.28,2.6,2.6,0,0,1,1.81,1h-.14c.29.34.73-.23.92.21H18c.71.61,1.72.94,2.08,1.7.34-.29.69.64,1,.17.3.53.11.54.65,1.09.16.13.44-.16.69-.08l-.15.27.45-.1,0,.41.24,0a.24.24,0,0,1,0-.29c.38.06.65.63.58.77l.87.2c-.08.1-.22.06-.36.07.55,0-.09.32.42.28,0-.09.12-.14.16-.19a1.35,1.35,0,0,0,.84.61l-.16.15c.53.36,1.23.55,1.85.9a.27.27,0,0,1,.25-.44l-.08.33c.21-.11-.13-.21.23-.3.22.16,0,.41-.2.43l.34.06c0,.09-.12.1-.2.2.21-.11.34.56.67.34l0,.09c.63.34,1,.38,1.5.63.14-.24.31-.09.57-.21a5.41,5.41,0,0,0,1.13.9c.38,0,.2-.17.42-.24-.09.24.38.44.06.49a6.09,6.09,0,0,0,1.53.44c0-.13-.1-.21,0-.27a.25.25,0,0,1,.17.34h0c.95,0,1.51,1.55,2.38,1.33h0l.77,0c.29.17-.26.1-.1.34.89-.08,1.1.56,1.81.55.17.88,1.66.61,2.1,1.31l0-.18c.23-.1.16.17.26.26,0-.14-.12-.22,0-.27a23.17,23.17,0,0,1,4.1,2c.5.24.6-.76,1.11-.12l-.29.24c1.18,0,2.16.74,3.3.76-.09.05-.12.15-.22.11.14.3.81.28.87.09.15.07,0,.18.05.31s.64-.12.69.14c0,0-.09.06-.13.06.18-.07.66.23.61-.08.35.24.79.1,1.05.35.29-.24.63.34.82-.06-.15.43.59.55.89.42-.12.11.18.2,0,.35.29.07.57.06.58-.18.38.66,1.17-.14,1.29.61a22.78,22.78,0,0,1,2.52.12c-.14.44-.86-.16-.94.3.77,0,1.28-.28,2,0,.17.1-.15.17-.23.23.77,0,1.4.37,2.1.28,0,0-.09.07-.16.09.13,0,.28.13.31-.07l-.14,0c-.14-.33.64-.49.69-.65-.34.53.61.27.11.93a.27.27,0,0,0,.23-.23c.12.06.14.15,0,.28.48,0,.36-.26.78-.17,0,.1-.11.12-.18.22a.82.82,0,0,1,.83-.14c0,.05,0,.14-.11.12.61.09,1.12-.29,1.75,0-.27.39.2.18.17.55l.38,0-.11-.2c.31.06.64-.16.88,0l-.26.11.6,0-.31-.2c.35-.13,0-.47.44-.3-.09,0,.31.06.44.3h0a.53.53,0,0,1,.57-.05c0,.13-.11.4-.09.48.2-.28.75,0,1-.27a.43.43,0,0,0-.1.3l.17-.23c.13.1.15.14.1.29.43.11-.07-.49.42-.21,0,0,0,.05-.12.08.51.18,1,0,1.49.18.09.39-.43,0-.31.37a12.49,12.49,0,0,1,2.15-.08l-.12-.06c.16-.51.47.32.84.11-.09,0-.14.28-.11.22a4.24,4.24,0,0,0,1.67-.1l-.1.13a5.61,5.61,0,0,0,1,.23c.1-.13.27-.09.18-.3.83.86,1.76-.24,2.51.46-.1,0-.24.1-.16.11l.69-.07c0-.23-.08-.15-.21-.34A.57.57,0,0,1,79,36c-.32.13,0,.37.1.51,0-.07,0-.15,0-.22.33.44.09-.46.56-.15l0,.12c.19,0,.36-.19.56-.15.06.27-.2.11-.23.33.28,0,.58-.47.81-.19-.12.07-.29.06-.41.13.25.33.29.25.49.31h0l.46.17-.11-.09c.38-.68.71-.09,1.2-.52-.47.41-.09.25-.14.55.12.09.29.19.24.28.23-.23.36.21.69-.14,0,.1.24,0,.18.26.29-.07-.06-.17,0-.29.45-.32,1,.44,1.68,0,.55-.17.66-.5,1.17-.66.17.16-.15.35-.15.35a.78.78,0,0,0,.75,0c-.05.08,0,.16.08.27s.14-.35.42-.21a1.38,1.38,0,0,1-.21.39c.25-.09.49-.26.75-.35.07.17-.16.26-.25.37.29-.07.75-.16.84-.42l-.18-.1c.1,0,.05.23,0,.28-.25.21-.36-.09-.37-.19l.18-.06c-.18-.57-.73.09-1.1,0l.16-.41-.38.34c-.08-.11-.13-.34.05-.4-.26-.21-.23.14-.46-.09,0,0,0-.06,0-.07l-.26.12c.05-.09,0-.29.12-.23-.45-.25-.75.3-.91,0l0,0c-.64.12-.07.3-.56.65l-.3-.76-.07.3c-.07,0-.19,0-.17-.16-.25.2,0,.13-.11.33-.31-.29-.88.1-.93-.39-.12.23.3.19,0,.34-.07-.53-.39.08-.67-.18.1-.26.37-.11.09-.36-.2.45-.56-.13-.8-.06,0,.36-.54.12-1,.22,0-.12-.76-.24-1.12-.4l0-.06c-.1.36-.48.26-.77.32a.42.42,0,0,1,.25-.39l-.27,0a.42.42,0,0,1-.34.2l.09-.27c-.36,0-.74.27-1.18.05,0,.25.3.74-.2.87,0-.14,0-.38.13-.42,0,0-.16.1-.24,0l.21-.21c-.2-.12-.13.18-.29.15,0-.2-.11-.15-.07-.31s.14.1.21,0a.74.74,0,0,1-.46-.35c0,.11,0,.26-.16.28-.36,0-.1-.25-.3-.37-.1.13-.31,0-.35.26-.1,0-.11-.15-.14-.23-.2.11-.86,0-.69.29l0,0h0c-.64.24-1.23-.3-1.84-.25v-.1c-.37.07-.8,0-1.08.15a.26.26,0,0,1-.17-.32c-.28,0-.33.15-.7-.06.3-.14-.07-.16.3-.09-.34-.13-.4-.3-.81-.09.16-.23-.22-.35-.4-.3l.22.22a1.57,1.57,0,0,1-.52-.08l.14-.32c-.66-.51-1.4.49-1.84-.26-.23.2.36.22.15.46-.33-.09-.59-.62-.69-.64-.42-.26-.5.41-1,.2a.37.37,0,0,1-.33.5c-.32-.1-.32-.56-.1-.62s.11,0,.1.09.26,0,.15-.2l-.06.11c-.14-.15-.6-.21-.46-.39-.27.07-.14.17,0,.27-.39-.24-.66-.12-1.07-.31.06.08.1.22,0,.21-.61-.26-.32.18-.76.14-.21-.23.17-.41-.29-.35-.24-.17,0-.32.13-.39-.44.14-.71-.3-.92-.38l.23-.05a.72.72,0,0,1-.34,0l.07.26c-.11-.07-.22-.09-.19-.18-.16.13,0,.41-.27.56-.14-.15-.52,0-.51-.29.49.21,0-.32.45-.28a.43.43,0,0,1-.31-.07s0-.06.07-.07c-.43-.37-.3.3-.8.19.1-.16,0-.35-.14-.33.2,0,0,.31-.18.4-.29-.2-.37,0-.54,0l.18.11c-.1.16-.26.1-.5.1,0-.14.23,0,.16-.12-.32.25-.49-.45-.89-.32-.13-.15.06-.33-.06-.44-.44.13-.37-.33-.82-.24.06.26.1.21-.25.37h.71l-.51.24c.2.05.46,0,.58,0-.25.14-.22.09-.16.3-.2-.41-.6.07-.87-.24l.15-.57c-.42-.37-.93.1-1.52-.22l.18.15c-.14.21-.39-.07-.62,0,.07-.19,0-.29-.1-.43,0,.14-.45-.13-.61.23L55.78,31c-.48-.24-.72.39-1.19.2.2-.17,0-.36.39-.42-.16,0-.3-.12-.34,0-.06-.15-.52.14-.62-.09-.09.06-.17.26-.35.19a.14.14,0,0,1,0-.09c0,.09-.32,0-.22.3-.33-.74-1.4-.37-1.68-1a9.34,9.34,0,0,1-1.13-.19c0-.05,0-.09.08-.06-.38-.3-.44.46-.88.1-.16-.39.32-.08.19-.24.13-.64-.62-.11-.84-.58h.09c-.19-.29-.7,0-1.1-.15a.15.15,0,0,0,0-.09,2.48,2.48,0,0,1-1.4.1c.21-.2.23-.07.23-.34-.19,0-.08.41-.47.36-.07-.17-.29-.38-.23-.65l.34.11c-.06-.39-.44-.15-.59-.27l.07-.14c-.53-.14-.67.23-1.21,0l0,.13c-.43.26-.18-.3-.58-.14l0-.4a5.84,5.84,0,0,1-1.21,0,3.25,3.25,0,0,1,1.09-.26c-.2-.07-.68-.22-.85-.07.09,0,.23-.06.28,0a1.24,1.24,0,0,1-1.11.08c.34-.68-.94-.59-1-1.25-.79,0-1.31-.66-2.12-.94.05.66-.24-.08-.43.5-.2,0-.27-.08-.27-.12l-.41-.58c-.06-.22.23,0,.26-.18-.38-.22-.07-.31-.26-.58,0,.22-.26.23-.46,0l.21.4c-.69.05-.28-.68-1-.64l.26-.1c-.33,0-1.06-.47-1.55-.15,0-.09,0-.27.13-.25-.66-.38-1.74-.24-2.14-.77l.12-.11c-.15,0-.34.15-.44-.06,0-.05.12-.11.06-.15s-.45.08-.58-.08l.22-.08c-.58-.49-1.2-.13-1.8-.32.2-.39-.25-.78-.48-1l0-.05a8.64,8.64,0,0,0-2.25-.56c-.21-.66-1.37-1-1.94-1.59.07.13-.19.29-.33.26s-.6,0-.37-.33l.05,0c.07-.41-.31-.51-.56-.67l-.31.43c-.29-1.06-1.92-.78-1.93-1.6-.23,0-.43-.11-.65-.09L23,16.7a4.74,4.74,0,0,0-1.2-.78l.22-.1c-.3-.21-.83.46-1.12.29l.14-.41c-.54-.34-.87-1-1.61-1,0,0,.13-.14.22-.1-.25-.17-.81-.86-1-.32.2-.32-.52-.4-.9-.45l.2-.2c-.44.13-.5.21-.89.06-.06-.08.06-.23.12-.1-.18-.3-.36.08-.59-.26l.22-.07c-.26-.2-.29-.11-.56,0a.54.54,0,0,1-.37-.65c-.12.1-.39.16-.51,0a.17.17,0,0,1,.17-.1c-.34-.47-.86-.21-1-.65a.23.23,0,0,0,0-.17,3.77,3.77,0,0,1,.59.47c.15-.21-.11-.45.32-.58-.34,0-1,.05-1.19-.24a.32.32,0,0,1,0-.1h0a.25.25,0,0,0-.2-.09.88.88,0,0,0-.18-.23c.09-.2-.26-.33-.39-.45-.16.23-.31.06-.28.38,0,0,0,0,.15.05l.08,0h0l.36.25c-.2,0-.38,0-.45-.2l-.47.22c0-.46-.21-.91-.11-1.14-.53-.19-1.08-.67-1.66-.46-.16,0,0-.23,0-.33s.18.08.26.05c-.32-.08-.75-.51-1-.27-.2-.37.38-.13-.07-.41l.13,0C9.89,7.41,8.44,8.18,8,6.86,8,6.95,8.06,7,8,7,7.23,6,5.74,5.55,5.11,4.29,4.9,4,4.71,4.12,4.43,4.1l.14-.28H4c-.58-.17-.21-1.19-1-1.29l-.07.21c-.16-.2-.67-.44-.48-.59,0,0-.2.1-.2,0L2.35,2l-.63-.22c-.27-.41.48-.41,0-.9C1.49.74.87.7.87.85a.3.3,0,0,1,0,.37l-.23-.1c-.35.31-.82.53-.61,1.16l.49.07-.06.25L.22,2.38c0,.29.22.24.4.24a.38.38,0,0,0,0,.3l.6-.05C1.09,3,.8,3,.93,3.27c.28,0,.15-.42.47-.31,0,.29-.16.38.13.4a.2.2,0,0,1-.25.11c.25,0,.44.32.69.21,0,.33.55.41.24.72a1,1,0,0,1,.65.1c-.61.17.5.49.06.85.51-.19.83.45,1.34.54,0,0-.13,0-.14,0,.16.2.13.35.19.53.28-.27.64-.09,1-.14,0,.49-.44.23-.6.57.19-.25.62.11.71-.16,0,.33.08.22,0,.54.35-.35.22.08.57,0,.11.41-.23.41.16.54C6.08,8,5.71,7.88,5.71,7.88Zm7.57,4.83h0l-.16-.09Zm.61.43-.26-.2c0-.09.12-.16.18-.11S13.86,13,13.9,13.14Zm-.13-2.5c.12,0,.12.11.09.16l-.18-.1,0,0A.47.47,0,0,1,13.77,10.64Z"/><path class="cls-2" d="M13.38,10.81h-.05a.6.6,0,0,0,0,.09l.09,0Z"/><path class="cls-2" d="M75.14,35.15h0l0,0Z"/><polygon class="cls-2" points="22.27 19.27 22.3 19.21 22.21 19.23 22.27 19.27"/><path class="cls-2" d="M79.15,36.47a.14.14,0,0,0,0,.08A.18.18,0,0,0,79.15,36.47Z"/><path class="cls-2" d="M80.92,36.65l.25.11A1.14,1.14,0,0,0,80.92,36.65Z"/><path class="cls-2" d="M82.28,36.87a.54.54,0,0,0,0-.12h0Z"/><path class="cls-2" d="M60.64,34.32h-.05C60.45,34.35,60.54,34.35,60.64,34.32Z"/><path class="cls-2" d="M67.13,34.91a1.13,1.13,0,0,1-.23.1C67,35,67.1,35.07,67.13,34.91Z"/><polygon class="cls-2" points="53.5 32.89 53.51 32.89 53.46 32.87 53.5 32.89"/><path class="cls-2" d="M66.6,34.95a.34.34,0,0,0,.3.06A.5.5,0,0,0,66.6,34.95Z"/><path class="cls-2" d="M88.22,37.14h.07a.1.1,0,0,1,0,0Z"/><path class="cls-2" d="M88.29,37.11l.07,0S88.3,37.08,88.29,37.11Z"/><path class="cls-2" d="M88.52,37l-.15.07C88.42,37.07,88.48,37.08,88.52,37Z"/><path class="cls-2" d="M86.4,37l0,.1A.25.25,0,0,0,86.4,37Z"/><path class="cls-2" d="M85.85,37c.13,0,.33.22.51.16l0-.08C86.29,37.25,86,36.84,85.85,37Z"/><path class="cls-2" d="M83.6,35.69l.45.1c-.08-.11-.18-.26,0-.28C83.52,35.16,84.2,35.75,83.6,35.69Z"/><path class="cls-2" d="M82.19,35.47c.25,0,0-.16,0-.22C82,35.34,82,35.36,82.19,35.47Z"/><path class="cls-2" d="M72,34.56l.06-.25C71.86,34.32,72,34.41,72,34.56Z"/><polygon class="cls-2" points="69.86 35.6 70.03 35.78 70.15 35.56 69.86 35.6"/><polygon class="cls-2" points="68.99 33.62 69.08 33.6 68.75 33.65 68.99 33.62"/><path class="cls-2" d="M52.27,29.95l0,.32C52.37,30.25,52.5,29.92,52.27,29.95Z"/><path class="cls-2" d="M45.13,27.93c0-.18-.18-.34-.36-.24C44.93,27.77,45,27.94,45.13,27.93Z"/><polygon class="cls-2" points="25.26 18.1 25.44 18.08 25.15 18.02 25.26 18.1"/></g><g class="cls-1"><path class="cls-2" d="M278.56,36c-.05.09,0,.28.13.24l.1-.33Z"/><path class="cls-2" d="M279.58,36.57a.71.71,0,0,0,.25-.75c-.17.32-.21.19-.39.57a.2.2,0,0,1-.24-.22c-.05.09-.23-.07-.31.14a.44.44,0,0,0,.7,0C279.64,36.42,279.59,36.51,279.58,36.57Z"/><path class="cls-2" d="M294.3,36l-.1,0A.19.19,0,0,0,294.3,36Z"/><path class="cls-2" d="M303.37,34.85c-.07,0-.09.06-.09.09S303.39,34.87,303.37,34.85Z"/><path class="cls-2" d="M305,34.91h-.09S305,34.94,305,34.91Z"/><path class="cls-2" d="M294.3,36l.25.07C294.56,36,294.42,36,294.3,36Z"/><path class="cls-2" d="M281.58,35.72a.32.32,0,0,0-.13.09l.12,0Z"/><path class="cls-2" d="M290.32,36.73h-.07a.92.92,0,0,0,0,.14Z"/><path class="cls-2" d="M287.23,37c.07,0,.07-.28.09-.4a.27.27,0,0,1-.14.2A.67.67,0,0,0,287.23,37Z"/><path class="cls-2" d="M282.31,36.83l-.09,0Z"/><path class="cls-2" d="M292.53,36.57a.31.31,0,0,0,0,.1A.21.21,0,0,0,292.53,36.57Z"/><path class="cls-2" d="M370,1.92l0,0S370,1.91,370,1.92Z"/><path class="cls-2" d="M373.65.71l0,0,.09.13Z"/><path class="cls-2" d="M307.85,34.69h0C307.77,34.74,307.81,34.72,307.85,34.69Z"/><path class="cls-2" d="M333,26.77c-.37-.12.33-.48-.19-.57C332.84,26.29,332.55,26.76,333,26.77Z"/><path class="cls-2" d="M281.66,35.75h.13A.25.25,0,0,0,281.66,35.75Z"/><path class="cls-2" d="M332.76,26.2h0Z"/><path class="cls-2" d="M314.25,33a.36.36,0,0,0-.1-.1A.23.23,0,0,0,314.25,33Z"/><path class="cls-2" d="M309.38,33.77h.13A.31.31,0,0,0,309.38,33.77Z"/><path class="cls-2" d="M316.61,32c.07,0,.1,0,.18,0l0,0S316.7,32,316.61,32Z"/><path class="cls-2" d="M319.17,31.23l-.06,0-.08,0Z"/><path class="cls-2" d="M363.82,6.9a.88.88,0,0,1,.25.13C363.92,6.89,364.18,6.61,363.82,6.9Z"/><path class="cls-2" d="M281.58,35.87c0-.07,0-.11.07-.12l-.09,0A.14.14,0,0,0,281.58,35.87Z"/><path class="cls-2" d="M316.12,29.79l.41-.07A1.93,1.93,0,0,0,316.12,29.79Z"/><path class="cls-2" d="M348,17l.07-.08A.09.09,0,0,0,348,17Z"/><path class="cls-2" d="M317.71,29.35a.61.61,0,0,0,.28.12.23.23,0,0,0,0-.08Z"/><path class="cls-2" d="M364.07,7h0Z"/><path class="cls-2" d="M365.86,4.86c-.32.23.07.4.13.62-.31.37-.34-.08-.58-.14-.18.25-.16.66-.34.78,0,0-.1,0-.1-.12-.08.42-.74.56-.81,1.08a.22.22,0,0,1-.09,0,1.33,1.33,0,0,1,.34.38c-.14.11-.13.39-.33.23.09-.06,0-.14,0-.24l-.09.2c-.34-.18.13-.25,0-.46-.22.31-.4.79-.69.87-.25-.24.46-.47,0-.5l.43-.15c-.58-.24.23-.12-.35-.41-.52.25-.41.51-.93.76,0,.23.2.2.2.43-.46.75-1-.33-1.23.39,0,.27.2.66-.28.71l-.1-.4c-.47.28.06.63-.56.75,0-.18.28-.35.19-.34-.48,0-.09.33-.33.49l-.24-.25c-.45.38-.84.95-1.35,1.35,0-.1,0-.25-.18-.26a5.59,5.59,0,0,1-2.25,1.18l-.1.41c-.06,0-.18,0-.15-.13-.32.07.09.17,0,.34a.15.15,0,0,1-.24-.15c-.32.5-1,1.29-1.67,1.31l0-.13c-.44.13-.11.77-.61.75l0-.09c-.89.39-1.67,1.18-2.53,1.16.09.44-.92.32-.68.86-.62,0-.54-.15-1.31.07-.19.08-.09.47-.28.65l-.16-.27-.15.45-.34-.23-.17.19a.25.25,0,0,1,.28.11.86.86,0,0,1-1,.12l-.65.66c0-.12.07-.23.13-.35-.27.5-.23-.24-.47.22.08,0,.06.18.08.24a1.44,1.44,0,0,0-1,.4l0-.22c-.61.26-1.18.74-1.84,1.07a.26.26,0,0,1,.22.45l-.23-.25c0,.24.26,0,.11.36-.26.09-.33-.25-.24-.41l-.25.25c-.06-.08,0-.16-.05-.28,0,.24-.66,0-.68.37l-.06-.08c-.66.33-.91.57-1.44.86.11.26-.12.31-.19.59a5.84,5.84,0,0,0-1.45.36c-.28.29,0,.26-.08.48-.13-.22-.61,0-.43-.26a7.35,7.35,0,0,0-1.37.92c.12.06.23.06.22.16a.26.26,0,0,1-.38-.08l0,0c-.68.72-2.22.16-2.66.94l0,0-.58.54c-.34.09.12-.26-.18-.31-.58.7-1.21.43-1.71.94-.76-.51-1.67.76-2.5.54l.1.15c-.11.23-.24,0-.38,0,.07.12.24.08.17.21A17.7,17.7,0,0,1,325,26.8c-.55.14,0,1-.83.8l.09-.38c-1,.74-2.23.76-3.21,1.4,0-.09,0-.19.12-.22-.3-.16-.84.25-.79.44-.17,0-.09-.16-.22-.22s-.48.47-.67.28c0,0,0-.09.08-.12-.11.16-.7.19-.48.41-.44,0-.74.36-1.11.3-.13.36-.74.05-.69.49-.1-.44-.81-.15-1,.12,0-.16-.26-.07-.21-.28-.29.09-.54.24-.43.45-.68-.37-1,.72-1.46.14a18.57,18.57,0,0,1-2.36,1.12c-.08-.45.87-.26.72-.71-.71.37-1,.85-1.82.93-.21,0,.06-.22.11-.31-.71.38-1.47.29-2.09.69,0,0,.06-.1.12-.15-.13,0-.32,0-.26.2l.12-.08c.28.24-.39.72-.38.88.1-.62-.7,0-.5-.8a.27.27,0,0,0-.12.31c-.14,0-.2-.08-.1-.26-.45.21-.24.39-.67.48,0-.1.06-.15.08-.28a.85.85,0,0,1-.74.47c0-.06,0-.13.06-.15-.62.15-1,.71-1.7.66.12-.46-.26-.09-.37-.45l-.35.18.18.15c-.33.06-.56.38-.87.31l.21-.2-.6.19.37.07c-.3.25.12.46-.33.44.08-.05-.33.05-.54-.14h0a.57.57,0,0,1-.54.25c-.08-.11,0-.42-.07-.49-.11.33-.75.21-.9.58a.41.41,0,0,0,0-.32l-.09.27c-.16-.05-.19-.09-.19-.25-.46,0,.22.44-.35.33,0,0,0-.06.1-.11-.56,0-1,.34-1.55.28-.2-.35.42-.15.21-.44a11.12,11.12,0,0,1-2.14.68l.14,0c0,.54-.56-.18-.88.11.08-.05.07-.31.06-.25a5,5,0,0,0-1.67.51l.07-.15a6.13,6.13,0,0,0-1.07,0c-.07.15-.25.15-.12.33-1-.65-1.76.6-2.66,0,.1,0,.23-.14.15-.13l-.7.2c.08.22.11.13.27.29A.62.62,0,0,1,290,36c.31-.18,0-.37-.19-.48,0,.07,0,.15,0,.22-.41-.37,0,.47-.56.24l0-.12c-.19.08-.35.25-.56.23-.11-.26.19-.14.19-.36-.29,0-.53.55-.81.31.12-.08.29-.1.41-.18a.62.62,0,0,0-.55-.24h0l-.5-.1.13.07c-.31.72-.73.19-1.18.68.45-.46.06-.25.08-.56-.13-.08-.33-.16-.28-.25-.21.26-.4-.17-.7.21,0-.1-.25,0-.21-.24-.29.09.08.17.06.29-.44.36-1.11-.34-1.75.16-.56.21-.66.54-1.18.73-.19-.15.13-.36.13-.36a.85.85,0,0,0-.78,0c.05-.09,0-.16-.09-.26s-.13.36-.43.23a1.41,1.41,0,0,1,.21-.4c-.25.1-.5.29-.77.39-.08-.17.15-.26.24-.37-.3.08-.77.17-.86.44l.2.09c-.11,0-.06-.23,0-.28.25-.22.37.08.39.18l-.19.07c.21.57.77-.11,1.15-.1l-.15.42.38-.36c.09.1.15.33,0,.4.28.19.24-.16.49.06,0,0,0,.06,0,.07l.26-.14c0,.09.06.29-.11.24.5.22.77-.34,1,0l0,0c.67-.17.05-.3.54-.69l.38.73,0-.31c.07,0,.21,0,.19.14.25-.22-.05-.13.09-.34.35.26.91-.19,1,.3.11-.24-.33-.16,0-.34.13.52.41-.11.73.11-.08.28-.37.15-.05.37.15-.46.6.06.85,0,0-.36.55-.2,1-.35,0,.12.83.13,1.24.23v.06c0-.37.47-.34.76-.45a.41.41,0,0,1-.19.43l.28,0a.46.46,0,0,1,.32-.25l0,.28c.38-.05.73-.4,1.23-.26,0-.26-.46-.67,0-.89,0,.14.08.37-.05.44,0,0,.14-.13.24-.08l-.18.25c.23.08.1-.21.27-.2,0,.2.15.13.14.29s-.16-.07-.22,0a.8.8,0,0,1,.55.25c0-.11,0-.26.11-.3.38-.05.15.22.39.3.08-.15.33,0,.3-.33.11,0,.15.12.2.2.18-.15.91-.15.65-.43h-.05l0,0h0c.6-.37,1.34,0,2-.2v.1c.36-.17.83-.19,1.07-.44.11,0,.29.14.26.26.28-.12.29-.23.73-.13-.26.21.12.14-.28.17.39,0,.5.17.86-.15-.1.27.33.27.5.17l-.29-.14a1.78,1.78,0,0,1,.55-.07l0,.34c.83.28,1.27-.91,2-.34.16-.26-.44-.09-.31-.39.36,0,.8.39.92.38.51.1.37-.55.89-.52a.36.36,0,0,1,.15-.58c.36,0,.52.41.32.54s-.13,0-.13,0-.25.14-.08.24l0-.12c.2.09.68,0,.6.19.24-.16.08-.21-.13-.24.48.08.7-.13,1.19-.11-.09,0-.18-.17-.11-.19.71,0,.26-.28.7-.42.3.13,0,.44.42.2.31.07.12.3,0,.41.38-.31.82,0,1.07,0l-.2.14a.89.89,0,0,1,.34-.12l-.17-.21c.14,0,.25,0,.27.09.1-.18-.18-.36,0-.63.2.08.5-.24.62.05-.57,0,.13.3-.32.45a.49.49,0,0,1,.33-.07s0,.07,0,.09c.58.16.17-.4.71-.51,0,.19.2.3.28.24-.22,0-.17-.27,0-.44.38.06.35-.18.54-.21l-.22,0c0-.19.21-.2.44-.31.05.13-.2.14-.1.18.2-.36.68.18,1-.11.2.08.09.32.26.37.36-.33.51.13.9-.17-.18-.2-.19-.14.06-.44l-.68.34.38-.45c-.22.05-.42.26-.56.25.17-.24.17-.18,0-.35.38.27.54-.35.94-.2l.13.58c.58.13.84-.52,1.55-.54l-.24,0c0-.25.4-.13.6-.28,0,.2.18.23.31.33,0-.14.49-.11.45-.51l.36.17c.56,0,.47-.71,1-.79-.1.25.17.32-.13.56.17,0,.34-.05.3-.19.13.09.41-.39.61-.25,0-.1,0-.31.21-.35a.14.14,0,0,1,0,.09c0-.09.27-.21,0-.38.7.44,1.47-.44,2.07-.09a10.57,10.57,0,0,1,1.12-.49c0,.06,0,.09,0,.09.52,0,.12-.63.71-.6.37.22-.23.25,0,.31.27.6.61-.28,1.08,0l-.07.06c.34.12.59-.43,1-.54a.14.14,0,0,0,0,.09,2.75,2.75,0,0,1,1.13-.95c-.05.29-.15.19,0,.41.18-.1-.19-.37.17-.57.17.09.48.11.61.36l-.35.14c.3.28.46-.17.67-.18l0,.16c.53-.24.41-.61,1-.78l-.1-.09c.19-.48.34.11.57-.27l.23.34a6.59,6.59,0,0,1,1-.85,3.41,3.41,0,0,1-.72.93c.21-.08.7-.29.74-.52-.07.07-.14.2-.25.17a1.35,1.35,0,0,1,.85-.81c.19.74,1.15-.22,1.66.22.64-.53,1.5-.44,2.34-.84-.52-.43.24-.12,0-.66.18-.12.26-.14.29-.11l.74.09c.21.11-.14.2-.07.32.45-.13.28.17.63.2-.14-.18,0-.35.31-.38l-.46-.12c.48-.55.72.26,1.21-.29l-.12.26c.27-.23,1.16-.48,1.26-1.07.08,0,.22.16.1.26.77-.26,1.44-1.21,2.13-1.18v.16c.12-.1.12-.36.36-.31,0,.06,0,.16.07.14s.25-.41.47-.41l-.08.23c.8-.16.92-.89,1.48-1.26.19.4.81.26,1.12.19l0,.06c.85-.36,1.24-1,1.92-1.56.69.2,1.68-.63,2.56-.79-.15,0-.14-.31,0-.42s.34-.53.51-.15l-.07,0c.32.28.63,0,.92-.14l-.2-.49c1.1.27,1.78-1.3,2.51-.92.11-.21.33-.33.44-.55l.13.25a5.46,5.46,0,0,0,1.34-.73l0,.25c.35-.18,0-1,.32-1.15l.31.31c.59-.34,1.36-.39,1.74-1.06,0,.06.07.17,0,.25.28-.16,1.21-.4.81-.83.2.32.62-.33.84-.67l.1.27c.07-.47,0-.56.34-.87.11,0,.19.14,0,.15.37-.06.08-.37.51-.46l0,.23c.31-.17.23-.24.28-.51a.59.59,0,0,1,.78-.11c0-.15,0-.43.22-.49a.17.17,0,0,1,0,.2c.59-.17.55-.75,1-.75a.23.23,0,0,0,.15.1,4.28,4.28,0,0,1-.7.41c.14.21.48,0,.43.51.15-.33.35-1,.72-1.07l.09,0,0,0a.28.28,0,0,0,.17-.16.92.92,0,0,0,.3-.1c.16.15.42-.15.58-.25-.17-.22.06-.33-.26-.39,0,0,0,0-.11.13a.22.22,0,0,0,0,.07v0l-.38.28c0-.2.11-.39.36-.37,0-.2,0-.42,0-.52.43.18,1,.07,1.15.23.38-.46,1.06-.85,1-1.49.09-.15.24,0,.34,0s-.14.16-.14.25c.19-.3.75-.61.6-1,.43-.1,0,.41.43,0V9.3c1.26-.17.9-1.82,2.34-1.94-.1,0-.14,0-.19,0,1.32-.58,2.11-2,3.52-2.44.37-.16.26-.37.34-.66l.26.18.1-.53c.29-.56,1.25-.06,1.51-.9l-.2-.1c.23-.14.57-.62.69-.42,0,0-.07-.22.08-.2l.11.12.32-.63c.46-.24.34.53.93.08.17-.22.3-.85.15-.87a.31.31,0,0,1-.39,0l.14-.22c-.27-.38-.43-.87-1.11-.72l-.14.49-.25-.08.26-.24c-.29,0-.27.19-.29.39a.38.38,0,0,0-.3-.08l0,.61c-.16-.11-.09-.4-.37-.29,0,.28.4.19.25.5-.29,0-.35-.2-.42.09a.2.2,0,0,1-.07-.26c-.07.24-.39.4-.32.66-.33-.07-.51.51-.77.15a1.09,1.09,0,0,1-.21.64c-.06-.63-.58.43-.87-.07.09.53-.61.75-.81,1.25,0,0,0-.14,0-.14-.23.13-.38.07-.56.1.22.33,0,.65-.08,1-.49-.1-.13-.48-.43-.71.21.24-.25.59,0,.73-.34,0-.24,0-.54-.14.26.41-.13.2-.11.57-.43,0-.35-.31-.57,0C365.69,5.21,365.86,4.86,365.86,4.86Zm-7,6.07h0l.15-.12Zm-.65.43.29-.18c.08.07.11.17,0,.2S358.31,11.37,358.17,11.36Zm2.47.7c-.08.1-.15.08-.19,0l.16-.15v0A.45.45,0,0,1,360.63,12.06Z"/><path class="cls-2" d="M360.61,11.63s0,0,0,0h-.1v.1Z"/><path class="cls-2" d="M294.18,36h0l0,0Z"/><polygon class="cls-2" points="348.7 16.5 348.74 16.57 348.76 16.48 348.7 16.5"/><path class="cls-2" d="M289.78,35.5a.14.14,0,0,0-.06-.07S289.75,35.48,289.78,35.5Z"/><path class="cls-2" d="M287.92,35.59l-.27-.08A1.21,1.21,0,0,0,287.92,35.59Z"/><path class="cls-2" d="M286.49,35.56a.52.52,0,0,0,0,.12h0Z"/><path class="cls-2" d="M308.87,32l.05,0C309,31.86,309,31.9,308.87,32Z"/><path class="cls-2" d="M302.37,33.94a1.19,1.19,0,0,1,.19-.17C302.44,33.77,302.35,33.78,302.37,33.94Z"/><polygon class="cls-2" points="316.08 29.8 316.08 29.8 316.12 29.79 316.08 29.8"/><path class="cls-2" d="M302.87,33.72a.37.37,0,0,0-.31,0A.55.55,0,0,0,302.87,33.72Z"/><path class="cls-2" d="M280.3,35.73h-.07a.09.09,0,0,1,0,0Z"/><path class="cls-2" d="M280.23,35.77l-.08,0S280.22,35.8,280.23,35.77Z"/><path class="cls-2" d="M280,35.88l.16-.07C280.1,35.8,280,35.79,280,35.88Z"/><path class="cls-2" d="M282.2,35.79l0-.1A.24.24,0,0,0,282.2,35.79Z"/><path class="cls-2" d="M282.77,35.74c-.14,0-.35-.2-.54-.13v.08C282.3,35.54,282.65,35.92,282.77,35.74Z"/><path class="cls-2" d="M285.24,36.87l-.49-.05c.09.1.21.24,0,.28C285.37,37.39,284.6,36.87,285.24,36.87Z"/><path class="cls-2" d="M286.75,36.94c-.26.07,0,.16,0,.22C286.92,37,287,37,286.75,36.94Z"/><path class="cls-2" d="M297.58,35.78V36C297.78,36,297.58,35.94,297.58,35.78Z"/><polygon class="cls-2" points="299.43 34.17 299.22 34.05 299.16 34.29 299.43 34.17"/><polygon class="cls-2" points="300.93 35.77 300.85 35.82 301.17 35.67 300.93 35.77"/><path class="cls-2" d="M318.79,31.61l-.15-.28C318.53,31.42,318.6,31.77,318.79,31.61Z"/><path class="cls-2" d="M326.21,28.87c.13.12.38.14.46,0C326.49,28.86,326.29,28.8,326.21,28.87Z"/><polygon class="cls-2" points="348.1 19.72 348 19.89 348.23 19.67 348.1 19.72"/></g><text class="cls-3" transform="translate(103.02 42.59)">Você pode escolher o <tspan x="60.63" y="22.8">nível!</tspan></text></g></g></svg>