<svg xmlns="http://www.w3.org/2000/svg" xmlns:xlink="http://www.w3.org/1999/xlink" viewBox="0 0 39.41 52.68"><defs><style>.cls-1{fill:#d8ab82;}.cls-2{clip-path:url(#clip-path);}.cls-3{opacity:0.05;}.cls-4{opacity:0.2;}.cls-5{font-size:21.93px;fill:#533a2a;font-family:Montserrat-Bold, Montserrat;font-weight:700;}</style><clipPath id="clip-path"><path class="cls-1" d="M2,52.68C1.36,48,2.2,36,2.54,30.43,2.19,22.81,2.48,6.83,2.42,0A22,22,0,0,0,7,4.11s1.39-2,2.74-4.1c1.13,1.24,4.1,4.09,4.1,4.09S16.24,1.55,17.35,0a36.06,36.06,0,0,0,2.92,4.27S23.12,1.61,25,0c1.05,1.12,4.09,4.09,4.09,4.09S30.55,1.43,31.48,0C32.16,1.3,34,4.09,34,4.09S35.7,2.23,38.17,0c.12,10.16-.87,20.14-1.3,27.89.18,5.61,1.31,18.47.68,24.79Z"/></clipPath></defs><title>balança_Ativo 31</title><g id="Camada_2" data-name="Camada 2"><g id="tela_5" data-name="tela 5"><path class="cls-1" d="M2,52.68C1.36,48,2.2,36,2.54,30.43,2.19,22.81,2.48,6.83,2.42,0A22,22,0,0,0,7,4.11s1.39-2,2.74-4.1c1.13,1.24,4.1,4.09,4.1,4.09S16.24,1.55,17.35,0a36.06,36.06,0,0,0,2.92,4.27S23.12,1.61,25,0c1.05,1.12,4.09,4.09,4.09,4.09S30.55,1.43,31.48,0C32.16,1.3,34,4.09,34,4.09S35.7,2.23,38.17,0c.12,10.16-.87,20.14-1.3,27.89.18,5.61,1.31,18.47.68,24.79Z"/><g class="cls-2"><path class="cls-3" d="M38.18,2.64C34,20.85,32.6,19.23,18.47,25.05A143.9,143.9,0,0,0,34,28c-3.06,4.93-9.5,11.51-14.07,11.65-2.89.09-7.23-3.83-9.36-6.82,1.61-.25,4-.18,4.46-1.24-6.82-.74-9.47-16.11-12.57-28A257.91,257.91,0,0,0,.37,52.68h39S39.41,27.64,38.18,2.64Z"/></g><g class="cls-4"><path d="M18.22,30.74a10.09,10.09,0,0,1,3-2,14.18,14.18,0,0,1,3.18-1,13.93,13.93,0,0,1,3.32-.21,10,10,0,0,1,3.51.81,10,10,0,0,1-3,2,13.93,13.93,0,0,1-3.18,1,14.18,14.18,0,0,1-3.32.2A10.09,10.09,0,0,1,18.22,30.74Z"/></g><g class="cls-4"><path d="M4.83,30.74a19.37,19.37,0,0,1,3.35,2.11,35.52,35.52,0,0,1,2.73,2.34c.86.8,1.67,1.62,2.49,2.49S15,39.41,16,40.53A7.2,7.2,0,0,1,11.83,40a11.63,11.63,0,0,1-3.39-2.23A12.75,12.75,0,0,1,6,34.66,9.27,9.27,0,0,1,4.83,30.74Z"/></g><text class="cls-5" transform="translate(11.81 35.63)">A</text></g></g></svg>